<svg xmlns="http://www.w3.org/2000/svg" width="154.187" height="283.563" viewBox="0 0 154.187 283.563">
  <path id="Icon_material-attach-file" data-name="Icon material-attach-file" d="M143.661,65.946V214.173c0,28.485-25.09,51.557-56.068,51.557s-56.068-23.072-56.068-51.557V53.057c0-17.787,15.7-32.223,35.042-32.223S101.61,35.27,101.61,53.057V188.394c0,7.089-6.308,12.889-14.017,12.889s-14.017-5.8-14.017-12.889V65.946H52.551V188.394c0,17.787,15.7,32.223,35.042,32.223s35.042-14.436,35.042-32.223V53.057c0-28.485-25.09-51.557-56.068-51.557S10.5,24.572,10.5,53.057V214.173c0,39.183,34.482,70.891,77.093,70.891s77.093-31.708,77.093-70.891V65.946Z" transform="translate(-10.5 -1.5)" fill="#989898"/>
</svg>
