<svg xmlns="http://www.w3.org/2000/svg" width="20.209" height="20.209" viewBox="0 0 20.209 20.209">
  <g id="Group_9945" data-name="Group 9945" transform="translate(-8.712 -8.712)" opacity="0.82">
    <g id="Light-M" transform="translate(8.712 8.712)">
      <path id="Path_3692" data-name="Path 3692" d="M8.654-62.521l1.8-6.141A11.214,11.214,0,0,1,9.7-70.79a9.479,9.479,0,0,1-.263-2.229,9.458,9.458,0,0,1,.765-3.787,9.806,9.806,0,0,1,2.075-3.083,9.8,9.8,0,0,1,3.083-2.076,9.452,9.452,0,0,1,3.787-.765,9.46,9.46,0,0,1,3.787.765,9.811,9.811,0,0,1,3.084,2.075A9.8,9.8,0,0,1,28.1-76.807a9.45,9.45,0,0,1,.765,3.787,9.458,9.458,0,0,1-.765,3.787,9.806,9.806,0,0,1-2.076,3.084,9.8,9.8,0,0,1-3.083,2.076,9.453,9.453,0,0,1-3.787.765,9.481,9.481,0,0,1-2.229-.263,11.2,11.2,0,0,1-2.127-.748Zm2.269-2.269,3.271-.971a2.371,2.371,0,0,1,.728-.086,1.764,1.764,0,0,1,.7.189,7.6,7.6,0,0,0,1.712.613,8.117,8.117,0,0,0,1.814.2,7.893,7.893,0,0,0,5.8-2.377,7.893,7.893,0,0,0,2.377-5.8,7.893,7.893,0,0,0-2.377-5.8,7.893,7.893,0,0,0-5.8-2.377,7.893,7.893,0,0,0-5.8,2.377,7.893,7.893,0,0,0-2.377,5.8,8.117,8.117,0,0,0,.2,1.814,7.6,7.6,0,0,0,.613,1.712,1.63,1.63,0,0,1,.2.7,2.088,2.088,0,0,1-.094.728Zm7.462-4.4h1.533v-3.067h3.067v-1.533H19.918v-3.067H18.385v3.067H15.318v1.533h3.067Z" transform="translate(-8.654 82.73)" fill="#f3f3f3"/>
    </g>
  </g>
</svg>
