<svg xmlns="http://www.w3.org/2000/svg" width="21.01" height="17.694" viewBox="0 0 21.01 17.694">
  <g id="Group_9944" data-name="Group 9944" transform="translate(-9.849 -11.28)">
    <path id="Icon_ionic-ios-share-alt" data-name="Icon ionic-ios-share-alt" d="M24.331,13.751l-7.35-6.876a.376.376,0,0,0-.292-.125c-.229.01-.521.172-.521.417v3.448a.223.223,0,0,1-.188.214C8.673,11.948,5.594,17.418,4.506,23.1c-.042.224.26.432.4.255,2.667-3.36,5.912-5.553,11.043-5.594a.258.258,0,0,1,.219.25v3.386a.447.447,0,0,0,.755.276l7.4-7a.575.575,0,0,0,.182-.438A.7.7,0,0,0,24.331,13.751Z" transform="translate(5.85 5.03)" fill="none" stroke="#fff" stroke-width="1"/>
  </g>
</svg>
