<svg xmlns="http://www.w3.org/2000/svg" width="60.165" height="77.356" viewBox="0 0 60.165 77.356">
  <g id="Thin-M" opacity="0.6">
    <path id="Path_4018" data-name="Path 4018" d="M31.942-2.874a6.726,6.726,0,0,1-4.955-1.987A6.726,6.726,0,0,1,25-9.816V-56.1a6.723,6.723,0,0,1,1.987-4.954,6.725,6.725,0,0,1,4.955-1.988h8.1v-2.149A14.5,14.5,0,0,1,44.43-75.841,14.5,14.5,0,0,1,55.083-80.23a14.5,14.5,0,0,1,10.653,4.389,14.5,14.5,0,0,1,4.389,10.653v2.149h8.1a6.725,6.725,0,0,1,4.955,1.988A6.724,6.724,0,0,1,85.165-56.1V-9.816a6.727,6.727,0,0,1-1.987,4.955,6.726,6.726,0,0,1-4.955,1.987Zm0-4.3H78.223A2.527,2.527,0,0,0,80.041-8a2.528,2.528,0,0,0,.827-1.819V-56.1a2.525,2.525,0,0,0-.827-1.818,2.525,2.525,0,0,0-1.818-.827h-8.1V-48a2.083,2.083,0,0,1-.615,1.533,2.083,2.083,0,0,1-1.533.615,2.083,2.083,0,0,1-1.533-.615A2.083,2.083,0,0,1,65.827-48V-58.742H44.339V-48a2.083,2.083,0,0,1-.615,1.533,2.083,2.083,0,0,1-1.533.615,2.083,2.083,0,0,1-1.533-.615A2.083,2.083,0,0,1,40.041-48V-58.742h-8.1a2.526,2.526,0,0,0-1.818.827A2.526,2.526,0,0,0,29.3-56.1V-9.816A2.528,2.528,0,0,0,30.124-8,2.527,2.527,0,0,0,31.942-7.172Zm12.4-55.868H65.827v-2.149a10.382,10.382,0,0,0-3.1-7.64,10.382,10.382,0,0,0-7.64-3.1,10.382,10.382,0,0,0-7.64,3.1,10.382,10.382,0,0,0-3.1,7.64Z" transform="translate(-25 80.23)" fill="#fff"/>
  </g>
</svg>
