<svg xmlns="http://www.w3.org/2000/svg" width="15.221" height="20.182" viewBox="0 0 15.221 20.182">
  <path id="Path_6026" data-name="Path 6026" d="M46.486,47.68a1.776,1.776,0,0,1-1.055-.354l-4.484-3.4a.494.494,0,0,0-.592,0l-4.484,3.4a1.753,1.753,0,0,1-2.812-1.4V29.253A1.758,1.758,0,0,1,34.826,27.5h11.66a1.759,1.759,0,0,1,1.794,1.754V45.926a1.743,1.743,0,0,1-.974,1.57,1.772,1.772,0,0,1-.82.184Zm-.291-1.345a.489.489,0,0,0,.785-.391V29.253a.49.49,0,0,0-.494-.494H34.826a.49.49,0,0,0-.489.494V45.926a.489.489,0,0,0,.785.391l4.484-3.4v0a1.761,1.761,0,0,1,2.116,0Z" transform="translate(-33.059 -27.499)" fill="#fff" opacity="0.78"/>
</svg>
