<svg xmlns="http://www.w3.org/2000/svg" width="22.804" height="27.073" viewBox="0 0 22.804 27.073">
  <path id="Apple" d="M22.326,21.1a14.721,14.721,0,0,1-1.456,2.617A13.3,13.3,0,0,1,19,25.981a3.637,3.637,0,0,1-2.41,1.061,6.04,6.04,0,0,1-2.226-.531,6.387,6.387,0,0,0-2.4-.53,6.6,6.6,0,0,0-2.464.53,6.63,6.63,0,0,1-2.129.56,3.425,3.425,0,0,1-2.464-1.09,13.962,13.962,0,0,1-1.961-2.346A16.228,16.228,0,0,1,.871,19.516,15.083,15.083,0,0,1,0,14.606,8.966,8.966,0,0,1,1.177,9.916,6.906,6.906,0,0,1,3.643,7.422a6.633,6.633,0,0,1,3.334-.941,7.849,7.849,0,0,1,2.578.6,8.288,8.288,0,0,0,2.045.6,12.238,12.238,0,0,0,2.268-.708,7.5,7.5,0,0,1,3.082-.547,6.545,6.545,0,0,1,5.127,2.7,5.7,5.7,0,0,0-3.025,5.181,5.715,5.715,0,0,0,1.877,4.306,6.167,6.167,0,0,0,1.875,1.23q-.226.654-.478,1.255ZM17.1.542A5.776,5.776,0,0,1,15.622,4.33,5.044,5.044,0,0,1,11.432,6.4a4.215,4.215,0,0,1-.031-.513,5.934,5.934,0,0,1,1.571-3.828A6.047,6.047,0,0,1,14.885.62,5.706,5.706,0,0,1,17.074,0,4.914,4.914,0,0,1,17.1.542Z" fill="#9f9f9f"/>
</svg>
