<?xml version="1.0" encoding="utf-8"?>
<!-- Generator: Adobe Illustrator 23.0.1, SVG Export Plug-In . SVG Version: 6.00 Build 0)  -->
<svg version="1.1" id="Layer_1" xmlns="http://www.w3.org/2000/svg" xmlns:xlink="http://www.w3.org/1999/xlink" x="0px" y="0px"
	 viewBox="0 0 96 120" style="enable-background:new 0 0 96 120;" xml:space="preserve">
<path d="M64.6,16.3c7.6-0.3,12.5,4,13.4,9.3c0.3,1.3-0.4,10.2-0.8,11.5c-1.1,2.7-1.8,5.2-3.7,6.8c-5.4,4.5-15.1,2.7-17.9-3
	c-0.4-0.9-0.7-2.4-1.2-3.6c-1-2.3-1.1-10.9-0.9-12.3C54.4,20.4,58.7,16.5,64.6,16.3z"/>
<path d="M56.9,47.8c1,3.8,3.6,30.6,5.1,31.8c0.9-2.1,0.3-21,1.1-23.3c0.9,0,2.7-0.3,3.6,0c0.3,2.6,0.4,20.7,0.9,23.2
	c1.3-0.2,3.8-27.6,5.3-31.6C86,46.6,87.7,72.2,88,83.7c-15.9,0-30.6,0-46.6,0C42,72.1,43.7,46.4,56.9,47.8z"/>
<path d="M69.3,51.4c-1,1.4-2.7,3.7-2.7,3.7L63.3,55c0,0-2.6-2.4-2.9-3.4C61.8,50.5,68.4,50.8,69.3,51.4z"/>
<path d="M38.6,80.5c0.3-7.8,4.2-29,8.9-32.4c-2.2-1.7-3.9-3.9-8.4-3.5c-1.4,4.1-3.9,31.5-5.3,31.6c-0.4-2.4-0.6-20.5-0.9-23.2
	c-0.9-0.3-2.8,0-3.6,0c-0.8,2.3-0.2,21.1-1.1,23.3c-1.5-1.2-4.1-28-5.1-31.8C10,43.2,8.4,69.1,8,80.5C20.8,80.5,38.6,80.5,38.6,80.5
	z"/>
<path d="M30.6,12.3c7.6-0.3,12.5,4,13.4,9.3c0.3,1.3-0.4,10.2-0.8,11.5c-1.1,2.7-1.8,5.2-3.7,6.8c-5.4,4.5-15.1,2.7-17.9-3
	c-0.4-0.9-0.7-2.4-1.2-3.6c-0.9-2.3-1.1-11-0.8-12.3C20.3,16.5,24.6,12.5,30.6,12.3z"/>
<path d="M35.3,47.7c-1,1.4-2.7,3.7-2.7,3.7l-3.3-0.1c0,0-2.6-2.4-2.9-3.4C27.8,46.8,34.4,47,35.3,47.7z"/>
</svg>
