<?xml version="1.0" encoding="utf-8"?>
<!-- Generator: Adobe Illustrator 23.0.1, SVG Export Plug-In . SVG Version: 6.00 Build 0)  -->
<svg version="1.1" id="Layer_1" xmlns="http://www.w3.org/2000/svg" xmlns:xlink="http://www.w3.org/1999/xlink" x="0px" y="0px"
	 viewBox="0 0 128 160" style="enable-background:new 0 0 128 160;" xml:space="preserve">
<style type="text/css">
	.st0{fill:none;stroke:#000000;stroke-miterlimit:10;}
</style>
<path class="st0" d="M80.8,55.8c0.1-0.3,0.3-0.6,0.4-1c0.7-2,1.1-4,1.1-6.1s-0.4-4.1-1.1-6.1c-0.1-0.3-0.2-0.6-0.4-1
	c-2.8-6.7-9.4-11.1-16.6-11.1h-0.1H64c-7.3,0.1-13.8,4.4-16.6,11.1c-0.1,0.3-0.3,0.6-0.4,1c-0.7,2-1.1,4-1.1,6.1s0.4,4.1,1.1,6.1
	c0.1,0.3,0.2,0.7,0.4,1c2.8,6.7,9.4,11.1,16.6,11.1h0.1h0.1C71.4,66.9,77.9,62.6,80.8,55.8z M57.6,34.5c-0.4,0.5-0.7,1.1-1,1.7
	c-0.8,1.6-1.4,3.3-1.9,5.3h-4.5C51.8,38.4,54.5,36,57.6,34.5z M48.4,48.8c0-1.6,0.2-3.1,0.7-4.6h5.1c-0.2,1.5-0.3,3-0.3,4.6
	s0.1,3.1,0.3,4.6h-5.1C48.7,51.9,48.4,50.3,48.4,48.8z M50.2,56h4.5c0.5,2,1.1,3.8,1.9,5.3c0.3,0.6,0.6,1.2,1,1.7
	C54.5,61.6,51.8,59.1,50.2,56z M62.7,64.1c-2.2-0.9-4.1-3.9-5.2-8.1h5.2V64.1z M62.7,53.4h-5.8c-0.2-1.5-0.4-3-0.4-4.6
	s0.1-3.1,0.4-4.6h5.8V53.4z M62.7,41.5h-5.2c1.1-4.2,3.1-7.2,5.2-8.1V41.5z M79.6,48.8c0,1.6-0.2,3.1-0.7,4.6h-5.1
	c0.2-1.5,0.3-3,0.3-4.6s-0.1-3.1-0.3-4.6h5.1C79.3,45.6,79.6,47.2,79.6,48.8z M77.8,41.5h-4.5c-0.5-2-1.1-3.8-1.9-5.3
	c-0.3-0.6-0.6-1.2-1-1.7C73.5,36,76.2,38.4,77.8,41.5z M65.3,33.5c2.2,0.9,4.1,3.9,5.2,8.1h-5.2V33.5z M65.3,44.2h5.8
	c0.2,1.5,0.4,3,0.4,4.6s-0.1,3.1-0.4,4.6h-5.8V44.2z M65.3,64.1V56h5.2C69.5,60.2,67.5,63.2,65.3,64.1z M70.4,63
	c0.4-0.5,0.7-1.1,1-1.7c0.8-1.6,1.4-3.3,1.9-5.3h4.5C76.2,59.1,73.5,61.6,70.4,63z"/>
<path class="st0" d="M125,72.8c-0.3-1.6-1.3-2.9-2.7-3.6c-4.6-2.3-14.8-5.7-14.8-5.7v-3.4l0.3-0.2c2-1.5,3.3-3.7,3.7-6.2l0.1-0.4
	h0.3c1.6,0,2.9-1,3.5-2.3c0.3-0.6,0.5-1.3,0.5-2c0-0.5-0.1-1-0.3-1.4c-0.1-0.5-0.4-0.9-0.8-1.2l-0.9-0.6l0.2-1
	c1.7-7.4-4-14.1-11.7-14.3c-0.2,0-0.4,0-0.6,0s-0.4,0-0.6,0c-7.7,0.2-13.4,6.8-11.7,14.3l0.2,1l-0.9,0.6c-0.4,0.3-0.7,0.7-0.8,1.2
	c-0.2,0.4-0.3,0.9-0.3,1.4c0,0.7,0.2,1.4,0.5,2c0.6,1.4,1.9,2.3,3.5,2.3H92l0.1,0.4c0.4,2.5,1.7,4.7,3.7,6.2l0.3,0.2v3.4
	c0,0-10.2,3.4-14.8,5.7c-0.6,0.3-1.2,0.8-1.6,1.3C83.9,72,89,74,92.2,75.6c2.8,1.4,4.7,4,5.2,7.1c0.1,0.8,0.3,1.7,0.4,2.6H126
	C126,85.3,125.8,77.4,125,72.8z"/>
<path class="st0" d="M35.8,75.6C39,74,44.1,72,48.3,70.5c-0.4-0.5-1-1-1.6-1.3c-4.6-2.3-14.8-5.7-14.8-5.7v-3.4l0.3-0.2
	c2-1.5,3.3-3.7,3.7-6.2l0.1-0.4h0.3c1.6,0,2.9-1,3.5-2.3c0.3-0.6,0.5-1.3,0.5-2c0-0.5-0.1-1-0.3-1.4c-0.1-0.5-0.4-0.9-0.8-1.2
	l-0.9-0.6l0.2-1c1.7-7.4-4-14.1-11.7-14.3c-0.2,0-0.4,0-0.6,0s-0.4,0-0.6,0c-7.7,0.2-13.4,6.8-11.7,14.3l0.2,1l-0.9,0.6
	c-0.4,0.3-0.7,0.7-0.8,1.2c-0.2,0.4-0.3,0.9-0.3,1.4c0,0.7,0.2,1.4,0.5,2c0.6,1.4,1.9,2.3,3.5,2.3h0.3l0.1,0.4
	c0.4,2.5,1.7,4.7,3.7,6.2l0.3,0.2v3.4c0,0-10.2,3.4-14.8,5.7c-1.4,0.7-2.4,2-2.7,3.6c-0.8,4.6-1,12.5-1,12.5h28.2
	c0.1-0.9,0.2-1.8,0.4-2.6C31.1,79.6,33.1,77,35.8,75.6z"/>
<path class="st0" d="M90.7,78.6c-6-3-19.3-7.4-19.3-7.4h-1.1L66.7,76l3.4,23.5h25.3c0,0-0.2-10.2-1.2-16.2
	C93.8,81.2,92.5,79.5,90.7,78.6z"/>
<path class="st0" d="M56.6,71.1c0,0-13.2,4.4-19.3,7.4c-1.8,0.9-3.1,2.6-3.5,4.7c-1,6-1.2,16.2-1.2,16.2h25.3L61.3,76l-3.6-4.8
	L56.6,71.1L56.6,71.1z"/>
</svg>
