<?xml version="1.0" encoding="utf-8"?>
<!-- Generator: Adobe Illustrator 23.0.1, SVG Export Plug-In . SVG Version: 6.00 Build 0)  -->
<svg version="1.1" id="Layer_1" xmlns="http://www.w3.org/2000/svg" xmlns:xlink="http://www.w3.org/1999/xlink" x="0px" y="0px"
	 viewBox="0 0 100 125" style="enable-background:new 0 0 100 125;" xml:space="preserve">
<g>
	<path d="M95.5,24.1c-1-0.8-2.2-1.3-3.6-1.4v-1.1c0-0.5-0.1-0.9-0.2-1.4c0,0,0,0,0,0c0,0,0,0,0,0c0,0,0,0,0,0c0-0.1,0-0.1-0.1-0.2
		c0-0.1,0-0.1-0.1-0.1c0-0.1-0.1-0.2-0.1-0.3l0,0c0-0.1-0.1-0.1-0.1-0.2c-0.1-0.1-0.1-0.3-0.2-0.4c0,0,0,0,0,0
		c-0.1-0.1-0.2-0.3-0.3-0.4c0,0,0,0,0,0c-0.1-0.2-0.3-0.4-0.5-0.5c-1-1-2.3-1.5-3.7-1.5l0,0H54.4c-1.9,0-3.5,1-4.4,2.4
		c-0.9-1.5-2.6-2.4-4.4-2.4c0,0,0,0,0,0H13.4c0,0,0,0,0,0c-0.3,0-0.6,0-0.9,0.1c0,0,0,0,0,0c0,0,0,0,0,0c0,0,0,0,0,0
		c-0.1,0-0.1,0-0.2,0c0,0,0,0-0.1,0l0,0c-0.1,0-0.2,0-0.3,0.1c0,0,0,0,0,0c0,0,0,0,0,0c-0.2,0.1-0.4,0.2-0.7,0.3c0,0-0.1,0-0.1,0
		C11,16.9,11,17,10.9,17c-0.1,0-0.1,0.1-0.2,0.1c0,0,0,0,0,0l-0.1,0.1c0,0,0,0,0,0c0,0,0,0-0.1,0c0,0,0,0,0,0c0,0-0.1,0.1-0.1,0.1
		c0,0-0.1,0.1-0.1,0.1c0,0-0.1,0.1-0.1,0.1c0,0,0,0,0,0c-0.1,0-0.1,0.1-0.2,0.1c0,0,0,0-0.1,0c0,0,0,0-0.1,0c0,0-0.1,0.1-0.1,0.1
		c0,0,0,0,0,0c0,0,0,0,0,0c-0.2,0.2-0.3,0.3-0.5,0.5c-0.1,0.1-0.2,0.2-0.3,0.4c0,0,0,0,0,0c-0.1,0.2-0.2,0.3-0.2,0.4
		c0,0.1-0.1,0.1-0.1,0.2c0,0,0,0.1,0,0.1c0,0,0,0.1,0,0.1c0,0,0,0,0,0c0,0,0,0,0,0.1c0,0,0,0,0,0c0,0,0,0,0,0c0,0.1,0,0.1-0.1,0.2
		c0,0,0,0,0,0c0,0.1,0,0.1-0.1,0.2c0,0.1-0.1,0.2-0.1,0.4c0,0.1,0,0.1,0,0.2c0,0,0,0,0,0c0,0.1,0,0.2,0,0.3c0,0.1,0,0.1,0,0.2
		c0,0.1,0,0.1,0,0.2c0,0.1,0,0.1,0,0.2v1.1c-1,0-1.9,0.3-2.7,0.8c-1.7,0.9-2.8,2.6-2.8,4.6v50.3c0,1.5,0.7,2.9,1.9,3.9
		c1,0.9,2.4,1.4,4,1.4c0,0,0,0,0,0H45c0,0,0,0,0,0c2.1,0,4-1,5-2.6c1,1.6,2.9,2.6,5,2.6c0,0,0,0,0,0h36.5c0,0,0,0,0,0
		c2.2,0,4.2-1.1,5.1-2.8c0.5-0.8,0.7-1.6,0.7-2.5V28C97.4,26.4,96.7,25,95.5,24.1z M49.2,78.3c0,2-1.9,3.7-4.2,3.7c0,0,0,0,0,0H8.4
		c-1.1,0-2.2-0.4-2.9-1c-0.8-0.7-1.3-1.6-1.3-2.6c0,0,0,0,0,0V28c0,0,0,0,0,0c0-1.4,0.9-2.6,2.1-3.2c0.5-0.3,1.1-0.4,1.8-0.5V71
		c0,0.1,0,0.2,0,0.3c0,0,0,0,0,0c0,0.2,0,0.3,0.1,0.5c0,0,0,0,0,0c0,0,0,0,0,0c0,0.1,0,0.2,0,0.3c0,0.1,0,0.2,0.1,0.3
		c0,0.2,0.1,0.3,0.1,0.5c0.1,0.2,0.1,0.3,0.2,0.5c0.1,0.2,0.2,0.3,0.2,0.5c0,0,0,0,0,0.1C9,73.9,9,74,9.1,74c0,0,0.1,0.1,0.1,0.1
		c0.1,0.1,0.1,0.1,0.2,0.2c0,0,0.1,0.1,0.1,0.1c0,0.1,0.1,0.1,0.1,0.2c0,0,0.1,0.1,0.1,0.1C9.8,74.9,9.9,75,10,75c0,0,0,0,0,0
		c0.1,0.1,0.2,0.1,0.2,0.2c0.1,0.1,0.3,0.2,0.4,0.3c0,0,0,0,0,0c0,0,0.1,0,0.1,0c0,0,0.1,0,0.1,0.1c0,0,0,0,0,0c0,0,0,0,0.1,0
		c0,0,0,0,0.1,0c0,0,0,0,0,0c0.1,0,0.1,0.1,0.2,0.1c0,0,0.1,0,0.1,0c0,0,0,0,0.1,0c0,0,0,0,0.1,0c0.1,0,0.1,0,0.2,0.1
		c0.1,0,0.2,0.1,0.2,0.1c0.2,0.1,0.4,0.1,0.6,0.1c0,0,0,0,0,0c0,0,0,0,0,0c0.1,0,0.1,0,0.2,0c0,0,0,0,0,0c0,0,0,0,0,0c0,0,0,0,0,0
		c0.1,0,0.1,0,0.2,0c0,0,0.1,0,0.1,0c0.1,0,0.2,0,0.4,0c0,0,0,0,0,0h32.2c0,0,0,0,0,0c1.4,0,2.7-0.5,3.6-1.4L49.2,78.3L49.2,78.3z
		 M49.2,28V71l0,0c0,2-1.6,3.6-3.6,3.6c0,0,0,0,0,0H13.4c0,0,0,0,0,0c-0.1,0-0.2,0-0.3,0c0,0,0,0-0.1,0c0,0,0,0,0,0
		c-0.1,0-0.2,0-0.3,0c0,0,0,0,0,0c-0.1,0-0.2-0.1-0.3-0.1c0,0,0,0,0,0c-0.4-0.1-0.9-0.4-1.2-0.7c0,0,0,0,0,0
		c-0.1-0.1-0.2-0.1-0.3-0.2l0,0c-0.1-0.1-0.1-0.2-0.2-0.2c0,0,0,0,0-0.1c-0.1-0.1-0.1-0.1-0.2-0.2c0,0,0,0,0-0.1
		c-0.4-0.6-0.6-1.2-0.6-2c0,0,0,0,0,0V23.5c0,0,0,0,0,0s0,0,0,0v-1.9c0,0,0,0,0,0c0-0.1,0-0.2,0-0.4c0,0,0,0,0-0.1
		c0-0.1,0-0.2,0-0.3c0,0,0,0,0,0c0-0.1,0.1-0.2,0.1-0.3c0,0,0,0,0,0c0-0.1,0.1-0.2,0.1-0.3c0,0,0,0,0,0c0.1-0.3,0.3-0.6,0.5-0.9
		c0,0,0,0,0,0c0.1-0.1,0.1-0.2,0.2-0.2c0,0,0,0,0,0c0.1-0.1,0.2-0.2,0.2-0.2c0,0,0,0,0,0c0.2-0.1,0.4-0.3,0.6-0.4c0,0,0,0,0,0
		s0,0,0,0c0.1,0,0.2-0.1,0.3-0.1c0,0,0,0,0,0c0,0,0,0,0,0c0.1,0,0.2-0.1,0.3-0.1c0,0,0,0,0,0c0,0,0,0,0,0c0.1,0,0.2-0.1,0.3-0.1
		c0,0,0.1,0,0.1,0c0.1,0,0.2,0,0.3,0c0,0,0.1,0,0.1,0c0.1,0,0.2,0,0.3,0c0,0,0,0,0,0h32.2c2,0,3.6,1.6,3.6,3.6L49.2,28L49.2,28z
		 M50.8,28v-6.4c0,0,0,0,0,0c0,0,0,0,0,0c0-2,1.6-3.6,3.6-3.6h32.2c1,0,1.9,0.4,2.5,1.1c0.1,0.1,0.2,0.3,0.3,0.4l0,0c0,0,0,0,0,0
		c0.1,0.1,0.1,0.2,0.2,0.3c0,0,0,0,0,0c0.1,0.1,0.1,0.2,0.2,0.3c0,0,0,0.1,0.1,0.1l0,0c0,0,0,0.1,0.1,0.1c0,0,0,0,0,0c0,0,0,0,0,0.1
		c0,0.1,0,0.1,0.1,0.2c0,0,0,0,0,0c0.1,0.3,0.1,0.6,0.1,0.9c0,0,0,0,0,0V71c0,0,0,0,0,0c0,0.3,0,0.6-0.1,0.9c0,0,0,0,0,0
		c0,0.1,0,0.1-0.1,0.2c0,0,0,0,0,0.1c0,0,0,0,0,0c0,0.1-0.1,0.2-0.1,0.3c-0.1,0.1-0.1,0.2-0.2,0.3c0,0,0,0,0,0
		c-0.1,0.1-0.1,0.2-0.2,0.3c-0.7,0.9-1.7,1.4-2.9,1.4c0,0,0,0,0,0H54.4c0,0,0,0,0,0c-2,0-3.6-1.6-3.6-3.6L50.8,28L50.8,28z
		 M95.8,78.3C95.8,78.3,95.8,78.3,95.8,78.3c0,0.6-0.2,1.2-0.5,1.8c-0.7,1.1-2.1,1.9-3.7,1.9H55c0,0,0,0,0,0c-2.3,0-4.2-1.7-4.2-3.7
		v-3.5c0.9,0.9,2.2,1.4,3.6,1.4c0,0,0,0,0,0h32.2c1.6,0,3.2-0.8,4.2-2.1c0.1-0.1,0.2-0.3,0.3-0.4c0,0,0,0,0-0.1
		c0.1-0.1,0.1-0.3,0.2-0.4c0,0,0,0,0,0l0,0v0c0.1-0.2,0.1-0.3,0.2-0.5c0,0,0,0,0,0c0,0,0-0.1,0.1-0.1c0,0,0-0.1,0-0.1
		c0,0,0-0.1,0-0.1c0,0,0,0,0-0.1c0,0,0,0,0,0c0,0,0,0,0,0c0,0,0,0,0,0c0.1-0.4,0.2-0.9,0.2-1.4V24.3c1,0.1,1.9,0.4,2.6,1
		c0.8,0.7,1.3,1.6,1.3,2.6c0,0,0,0,0,0L95.8,78.3L95.8,78.3z"/>
	<path d="M43.7,51.7H15.3c-0.5,0-0.8,0.4-0.8,0.8c0,0.5,0.4,0.8,0.8,0.8h28.4c0.5,0,0.8-0.4,0.8-0.8C44.5,52,44.1,51.7,43.7,51.7z"
		/>
	<path d="M43.7,55.9H15.3c-0.5,0-0.8,0.4-0.8,0.8c0,0.5,0.4,0.8,0.8,0.8h28.4c0.5,0,0.8-0.4,0.8-0.8C44.5,56.2,44.1,55.9,43.7,55.9z
		"/>
	<path d="M43.7,60.1H15.3c-0.5,0-0.8,0.4-0.8,0.8c0,0.5,0.4,0.8,0.8,0.8h28.4c0.5,0,0.8-0.4,0.8-0.8C44.5,60.4,44.1,60.1,43.7,60.1z
		"/>
	<path d="M43.7,64.3H15.3c-0.5,0-0.8,0.4-0.8,0.8c0,0.5,0.4,0.8,0.8,0.8h28.4c0.5,0,0.8-0.4,0.8-0.8C44.5,64.6,44.1,64.3,43.7,64.3z
		"/>
	<path d="M43.7,68.5H15.3c-0.5,0-0.8,0.4-0.8,0.8c0,0.5,0.4,0.8,0.8,0.8h28.4c0.5,0,0.8-0.4,0.8-0.8C44.5,68.9,44.1,68.5,43.7,68.5z
		"/>
	<path d="M56.3,41h28.4c0.5,0,0.8-0.4,0.8-0.8c0-0.5-0.4-0.8-0.8-0.8H56.3c-0.5,0-0.8,0.4-0.8,0.8C55.5,40.6,55.8,41,56.3,41z"/>
	<path d="M56.3,36.8h28.4c0.5,0,0.8-0.4,0.8-0.8c0-0.5-0.4-0.8-0.8-0.8H56.3c-0.5,0-0.8,0.4-0.8,0.8C55.5,36.4,55.8,36.8,56.3,36.8z
		"/>
	<path d="M56.3,32.6h28.4c0.5,0,0.8-0.4,0.8-0.8c0-0.5-0.4-0.8-0.8-0.8H56.3c-0.5,0-0.8,0.4-0.8,0.8C55.5,32.2,55.8,32.6,56.3,32.6z
		"/>
	<path d="M56.3,28.4h28.4c0.5,0,0.8-0.4,0.8-0.8c0-0.5-0.4-0.8-0.8-0.8H56.3c-0.5,0-0.8,0.4-0.8,0.8C55.5,28,55.8,28.4,56.3,28.4z"
		/>
	<path d="M56.3,24.2h28.4c0.5,0,0.8-0.4,0.8-0.8s-0.4-0.8-0.8-0.8H56.3c-0.5,0-0.8,0.4-0.8,0.8S55.8,24.2,56.3,24.2z"/>
	<path d="M43.7,22.5H15.3c-0.5,0-0.8,0.4-0.8,0.8v24.9c0,0.5,0.4,0.8,0.8,0.8h28.4c0.5,0,0.8-0.4,0.8-0.8V23.3
		C44.5,22.9,44.1,22.5,43.7,22.5z M42.9,47.5H16.1V24.2h26.8V47.5z"/>
	<path d="M23.9,42.7c0.1,0.1,0.3,0.1,0.4,0.1s0.3,0,0.4-0.1l10.4-6c0.3-0.1,0.4-0.4,0.4-0.7c0-0.3-0.2-0.6-0.4-0.7l-10.4-6
		c-0.3-0.1-0.6-0.1-0.8,0c-0.3,0.1-0.4,0.4-0.4,0.7v12C23.5,42.2,23.6,42.5,23.9,42.7z M25.1,31.4l7.9,4.6l-7.9,4.6V31.4z"/>
	<path d="M56.3,70.1h5.4h10.6h0h7h5.4c0.5,0,0.8-0.4,0.8-0.8V44.4c0-0.5-0.4-0.8-0.8-0.8H56.3c-0.5,0-0.8,0.4-0.8,0.8V58v11.3
		C55.5,69.8,55.8,70.1,56.3,70.1z M72.8,68.5l-4.8-8.4l2.6-4.4l7.4,12.8H72.8z M57.1,45.2h26.8v23.3h-4.1l-8.6-14.9
		c-0.1-0.3-0.4-0.4-0.7-0.4s-0.6,0.2-0.7,0.4L67,58.5l-5.2-9.1C61.6,49.1,61.3,49,61,49c-0.3,0-0.6,0.2-0.7,0.4l-3.2,5.6L57.1,45.2
		L57.1,45.2z M57.1,58.2l3.9-6.8l9.8,17.1h-9.2h-4.6V58.2z"/>
	<path d="M77.9,54.6c2,0,3.6-1.6,3.6-3.6c0-2-1.6-3.6-3.6-3.6s-3.6,1.6-3.6,3.6C74.4,53,76,54.6,77.9,54.6z M77.9,49.1
		c1.1,0,1.9,0.9,1.9,1.9S79,53,77.9,53S76,52.1,76,51.1S76.9,49.1,77.9,49.1z"/>
</g>
</svg>
