<?xml version="1.0" encoding="utf-8"?>
<!-- Generator: Adobe Illustrator 23.0.1, SVG Export Plug-In . SVG Version: 6.00 Build 0)  -->
<svg version="1.1" id="Layer_1" xmlns="http://www.w3.org/2000/svg" xmlns:xlink="http://www.w3.org/1999/xlink" x="0px" y="0px"
	 viewBox="0 0 100 125" style="enable-background:new 0 0 100 125;" xml:space="preserve">
<g>
	<path d="M88.9,64.3c-1,0-2,0.4-2.7,1.1c-0.4,0.4-0.7,0.9-0.9,1.4l-2.8-2.1c0,0,0,0,0,0c0,0-0.1,0-0.1-0.1c0,0-0.1,0-0.1,0
		c0,0-0.1,0-0.1,0c0,0-0.1,0-0.1,0c0,0-0.1,0-0.1,0c0,0-0.1,0-0.1,0c0,0,0,0,0,0h-3.1V49.4C88,47.2,94.8,39,94.8,29.1
		c0-11.5-9.3-20.8-20.8-20.8s-20.8,9.3-20.8,20.8c0,9.8,6.9,18.1,16.1,20.3v15.1h-7.5h0c-1.1,0-2.1,0.4-2.9,1.2
		c-0.8,0.8-1.2,1.8-1.2,2.9s0.4,2.1,1.2,2.9c0.4,0.4,0.8,0.7,1.2,0.9c-0.6,0.7-0.9,1.6-0.9,2.5c0,1.6,1,3,2.4,3.7
		c-0.6,0.7-0.9,1.6-0.9,2.6c0,1.1,0.4,2.1,1.2,2.9c0.3,0.3,0.6,0.5,1,0.7c-0.6,0.7-1,1.7-1,2.6c0,1.1,0.4,2.1,1.2,2.9
		c0.7,0.7,1.7,1.1,2.7,1.2c0,0,0.1,0,0.1,0h16.1c1.4,0,2.6-0.5,3.6-1.5c0,0,0.1-0.1,0.1-0.2c0.7,1.1,1.9,1.8,3.2,1.8
		c2.1,0,3.8-1.7,3.8-3.8V68.1C92.7,66,91,64.3,88.9,64.3z M55.1,29.1c0-10.4,8.5-18.9,18.9-18.9s18.9,8.5,18.9,18.9S84.4,48,74,48
		S55.1,39.5,55.1,29.1z M76.8,49.7v14.7h-5.6V49.7c0.9,0.1,1.9,0.2,2.8,0.2C75,49.9,75.9,49.9,76.8,49.7z M85.1,86.5
		c0,0.8-0.3,1.6-0.9,2.2c-0.6,0.6-1.4,0.9-2.2,0.9h-16c0,0,0,0,0,0c-0.6,0-1.1-0.2-1.5-0.6c-0.4-0.4-0.6-1-0.6-1.5
		c0-0.6,0.2-1.1,0.6-1.5c0.4-0.4,1-0.6,1.5-0.6c0,0,0,0,0,0h2.3c0.5,0,1-0.4,1-1c0-0.5-0.4-1-1-1h-3.6c0,0,0,0,0,0
		c-0.6,0-1.1-0.2-1.5-0.6c-0.4-0.4-0.6-1-0.6-1.5c0-1.2,1-2.2,2.2-2.2h0l2.2,0c0.5,0,1-0.4,1-1s-0.4-1-1-1h0l-3.6,0
		c-1.2,0-2.3-1-2.3-2.2c0-1.2,1-2.2,2.3-2.2h0H66c0.5,0,1-0.4,1-1s-0.4-1-1-1h-4.3c0,0,0,0,0,0c-0.6,0-1.1-0.2-1.5-0.6
		c-0.4-0.4-0.6-1-0.6-1.5c0-0.6,0.2-1.1,0.6-1.5c0.4-0.4,1-0.6,1.5-0.6l0,0h19.9l3.5,2.7L85.1,86.5C85.1,86.5,85.1,86.5,85.1,86.5z
		 M88.9,89.8c-1,0-1.9-0.8-1.9-1.9V68.1c0-0.5,0.2-1,0.5-1.3s0.8-0.5,1.3-0.5c1,0,1.9,0.8,1.9,1.9v19.8
		C90.7,88.9,89.9,89.8,88.9,89.8z"/>
	<path d="M85.2,21.4c-0.4-0.4-1-0.4-1.4,0L70.5,34.7l-6.3-6.3c-0.4-0.4-1-0.4-1.4,0s-0.4,1,0,1.4l7,7c0.2,0.2,0.4,0.3,0.7,0.3
		s0.5-0.1,0.7-0.3l14-14C85.6,22.4,85.6,21.8,85.2,21.4z"/>
	<path d="M46.8,29.1c0-11.5-9.3-20.8-20.8-20.8S5.2,17.6,5.2,29.1c0,9.8,6.9,18.1,16.1,20.3v15.1h-3.1c0,0,0,0,0,0c0,0-0.1,0-0.1,0
		c0,0-0.1,0-0.1,0c0,0-0.1,0-0.1,0c0,0-0.1,0-0.1,0c0,0-0.1,0-0.1,0c0,0-0.1,0-0.1,0.1c0,0,0,0,0,0l-2.8,2.1c-0.2-0.5-0.5-1-0.9-1.4
		c-0.7-0.7-1.7-1.1-2.7-1.1c-1,0-2,0.4-2.7,1.1s-1.1,1.7-1.1,2.7v19.8c0,2.1,1.7,3.8,3.8,3.8l0,0c1.3,0,2.5-0.7,3.2-1.8
		c0,0.1,0.1,0.1,0.1,0.2c1,1,2.2,1.5,3.6,1.5h16.1c0,0,0.1,0,0.1,0c1,0,2-0.5,2.7-1.2c0.8-0.8,1.2-1.8,1.2-2.9c0-1-0.3-1.9-1-2.6
		c0.4-0.2,0.7-0.4,1-0.7c0.8-0.8,1.2-1.8,1.2-2.9c0-1-0.4-1.9-0.9-2.6c1.4-0.7,2.4-2.1,2.4-3.7c0-0.9-0.3-1.8-0.9-2.5
		c0.5-0.2,0.9-0.5,1.2-0.9c0.8-0.8,1.2-1.8,1.2-2.9c0-1.1-0.4-2.1-1.2-2.9c-0.8-0.8-1.8-1.2-2.9-1.2h0h-7.5V49.4
		C39.9,47.2,46.8,39,46.8,29.1z M13,87.9c0,1-0.8,1.9-1.9,1.9c-1,0-1.9-0.8-1.9-1.9V68.1c0-0.5,0.2-1,0.5-1.3
		c0.4-0.4,0.8-0.5,1.3-0.5c0.5,0,1,0.2,1.3,0.5c0.4,0.4,0.5,0.8,0.5,1.3L13,87.9L13,87.9z M38.3,66.4L38.3,66.4
		c0.6,0,1.1,0.2,1.5,0.6c0.4,0.4,0.6,1,0.6,1.5c0,0.6-0.2,1.1-0.6,1.5c-0.4,0.4-1,0.6-1.5,0.6l0,0H34c-0.5,0-1,0.4-1,1
		c0,0.5,0.4,1,1,1h2.6c0,0,0,0,0,0c1.2,0,2.3,1,2.3,2.2c0,1.2-1,2.2-2.3,2.2l-3.6,0h0c-0.5,0-1,0.4-1,1c0,0.5,0.4,1,1,1l2.2,0
		c0,0,0,0,0,0c1.2,0,2.2,1,2.2,2.2c0,0.6-0.2,1.1-0.6,1.5c-0.4,0.4-1,0.6-1.5,0.6c0,0,0,0,0,0h-3.6c-0.5,0-1,0.4-1,1
		c0,0.5,0.4,1,1,1h2.3c0,0,0,0,0,0c0.6,0,1.1,0.2,1.5,0.6c0.4,0.4,0.6,1,0.6,1.5c0,0.6-0.2,1.1-0.6,1.5s-1,0.6-1.5,0.6c0,0,0,0,0,0
		H18c-0.8,0-1.6-0.3-2.2-0.9s-0.9-1.4-0.9-2.2c0,0,0,0,0,0V69.1l3.5-2.7L38.3,66.4z M23.2,64.5V49.7c0.9,0.1,1.9,0.2,2.8,0.2
		s1.9-0.1,2.8-0.2v14.7L23.2,64.5z M26,48C15.6,48,7.1,39.5,7.1,29.1S15.6,10.3,26,10.3s18.9,8.5,18.9,18.9C44.9,39.5,36.4,48,26,48
		z"/>
	<path d="M33.9,21.2c-0.4-0.4-1-0.4-1.4,0L26,27.7l-6.6-6.6c-0.4-0.4-1-0.4-1.4,0s-0.4,1,0,1.4l6.6,6.6L18,35.7
		c-0.4,0.4-0.4,1,0,1.4c0.2,0.2,0.4,0.3,0.7,0.3c0.2,0,0.5-0.1,0.7-0.3l6.6-6.6l6.6,6.6c0.2,0.2,0.4,0.3,0.7,0.3
		c0.2,0,0.5-0.1,0.7-0.3c0.4-0.4,0.4-1,0-1.4l-6.6-6.6l6.6-6.6C34.3,22.1,34.3,21.5,33.9,21.2z"/>
</g>
</svg>
