<?xml version="1.0" encoding="utf-8"?>
<!-- Generator: Adobe Illustrator 23.0.1, SVG Export Plug-In . SVG Version: 6.00 Build 0)  -->
<svg version="1.1" id="Layer_1" xmlns="http://www.w3.org/2000/svg" xmlns:xlink="http://www.w3.org/1999/xlink" x="0px" y="0px"
	 viewBox="0 0 64 80" style="enable-background:new 0 0 64 80;" xml:space="preserve">
<g>
	<path d="M61,16h-3v-1c0-0.6-0.4-1-1-1h-3V7c0-2.8-2.2-5-5-5s-5,2.2-5,5v7H34c-0.6,0-1,0.4-1,1v1h-2v-1c0-0.6-0.4-1-1-1H7
		c-0.6,0-1,0.4-1,1v2H3c-0.6,0-1,0.4-1,1v43c0,0.6,0.4,1,1,1h58c0.6,0,1-0.4,1-1V17C62,16.4,61.6,16,61,16z M46,7c0-1.7,1.3-3,3-3
		s3,1.3,3,3v1h-6V7z M46,10h6v2h-6V10z M46,14h6v26h-6V14z M51.5,42L49,48.3L46.5,42H51.5z M35,16h9v25c0,0.1,0,0.3,0.1,0.4l4,10
		c0.2,0.5,0.8,0.8,1.3,0.6c0.3-0.1,0.5-0.3,0.6-0.6l4-10c0-0.1,0.1-0.2,0.1-0.4V16h2v40H35V16z M31,18h2v39c0,0.6-0.4,1-1,1
		s-1-0.4-1-1V18z M8,16h21v40H8V16z M60,60H4V19h2v38c0,0.6,0.4,1,1,1h22.2c0.5,1.6,2.3,2.4,3.8,1.8c0.9-0.3,1.5-1,1.8-1.8H57
		c0.6,0,1-0.4,1-1V18h2V60z"/>
	<rect x="48" y="34" width="2" height="4"/>
	<rect x="48" y="28" width="2" height="4"/>
	<rect x="48" y="22" width="2" height="4"/>
	<rect x="48" y="16" width="2" height="4"/>
	<rect x="10" y="20" width="2" height="2"/>
	<rect x="14" y="20" width="13" height="2"/>
	<rect x="10" y="24" width="17" height="2"/>
	<rect x="10" y="28" width="17" height="2"/>
	<rect x="10" y="32" width="17" height="2"/>
	<rect x="10" y="36" width="17" height="2"/>
	<rect x="10" y="40" width="17" height="2"/>
	<rect x="10" y="44" width="17" height="2"/>
	<rect x="10" y="48" width="17" height="2"/>
	<rect x="10" y="52" width="17" height="2"/>
</g>
</svg>
