<svg xmlns="http://www.w3.org/2000/svg" xmlns:xlink="http://www.w3.org/1999/xlink" width="12.966" height="17.189" viewBox="0 0 12.966 17.189">
  <defs>
    <linearGradient id="linear-gradient" x1="0.5" x2="0.5" y2="1" gradientUnits="objectBoundingBox">
      <stop offset="0"/>
      <stop offset="1" stop-color="#787878"/>
    </linearGradient>
  </defs>
  <g id="noun_diary_56455" transform="translate(-15.758 -4.898)">
    <g id="Group_1134" data-name="Group 1134" transform="translate(15.758 4.898)">
      <path id="Path_2501" data-name="Path 2501" d="M28.11,4.9H17.43a1.889,1.889,0,0,0-1.075.406l-.136.12a1.553,1.553,0,0,0-.461,1.021V21.473a.616.616,0,0,0,.614.614h10.68a.615.615,0,0,0,.614-.614V6.913a.615.615,0,0,0-.614-.614H19.913a.4.4,0,1,0-.808,0v4.214l-1.018-.993-.88.993V6.3h-.848l.66-.756H28.1V20.891h.01a.616.616,0,0,0,.614-.615V5.513A.616.616,0,0,0,28.11,4.9Zm-8.741,6.843a1.659,1.659,0,0,1,1.258-.548,1.867,1.867,0,0,1,1.613,1.094,1.865,1.865,0,0,1,1.588-1.081,1.764,1.764,0,0,1,1.221.519,1.388,1.388,0,0,1,.532.992,2.976,2.976,0,0,1-.505,1.561,7.8,7.8,0,0,1-1.258,1.483,20.448,20.448,0,0,1-1.6,1.342,18.2,18.2,0,0,1-1.518-1.3,9.033,9.033,0,0,1-1.275-1.484,2.756,2.756,0,0,1-.532-1.462A1.584,1.584,0,0,1,19.369,11.741Z" transform="translate(-15.758 -4.898)" fill="url(#linear-gradient)"/>
    </g>
  </g>
</svg>
