<?xml version="1.0" encoding="utf-8"?>
<!-- Generator: Adobe Illustrator 23.0.1, SVG Export Plug-In . SVG Version: 6.00 Build 0)  -->
<svg version="1.1" id="Layer_1" xmlns="http://www.w3.org/2000/svg" xmlns:xlink="http://www.w3.org/1999/xlink" x="0px" y="0px"
	 viewBox="0 0 256 256" style="enable-background:new 0 0 256 256;" xml:space="preserve">
<g transform="translate(0.000000,256.000000) scale(0.100000,-0.100000)">
	<path d="M1178.8,2480.3c-542.5-61.3-965.1-445.7-1077.3-980.5c-28.8-136.1-28.8-337.4,0-473.5c65.2-312.4,239.6-580.8,491.7-761
		c125.6-89.1,334.5-178.3,480.2-204.1l35.5-6.7V482v426.5H950.7H792.6v177.3v177.3h158.1h158.1v185c0,133.2,3.8,200.3,14.4,239.6
		c42.2,162.9,157.2,275.1,320.1,313.4c51.8,12.5,318.2,8.6,377.6-5.8l25.9-5.8v-151.4v-150.5l-107.3-4.8
		c-121.7-5.8-163.9-19.2-201.3-63.3c-33.5-40.3-46-104.5-46-241.5v-115h172.5h173.5l-5.8-30.7c-2.9-17.3-15.3-95.8-27.8-175.4
		l-21.1-143.8l-145.7-2.9l-145.7-2.9V481V54.5l36.4,6.7c144.7,25.9,353.7,115,479.2,204.1c252.1,180.2,426.5,448.5,491.7,761
		c28.8,136.1,28.8,337.4,0,473.5c-90.1,431.3-384.3,770.6-794.5,917.2C1554.6,2470.7,1330.3,2497.6,1178.8,2480.3z"/>
</g>
</svg>
