<svg xmlns="http://www.w3.org/2000/svg" xmlns:xlink="http://www.w3.org/1999/xlink" width="3109" height="2793" viewBox="0 0 3109 2793">
  <defs>
    <clipPath id="clip-path">
      <rect id="Rectangle_1074" data-name="Rectangle 1074" width="3109" height="2793" transform="translate(-0.245 -0.008)" fill="#fff" stroke="#707070" stroke-width="1" opacity="0.42"/>
    </clipPath>
  </defs>
  <g id="Mask_Group_293" data-name="Mask Group 293" transform="translate(0.245 0.008)" clip-path="url(#clip-path)">
    <g id="noun_Family_1764232_1_" data-name="noun_Family_1764232 (1)" transform="translate(22.82 63.862)">
      <path id="Path_3470" data-name="Path 3470" d="M866.493,400.551c0-180.8-157.4-346.71-350.052-380.135S121.417,88.481,57.606,257.734C41.5,301.187,5.341,422.429,27.219,689.222a361.6,361.6,0,0,0,313.284,330A361.9,361.9,0,0,0,747.074,816.238C859.808,572.842,866.8,446.738,866.493,400.551Z" transform="translate(598.742 -14.071)" fill-rule="evenodd"/>
      <path id="Path_3471" data-name="Path 3471" d="M922.779,1015.338C850.763,970.973,760.819,902,740.46,822.991,706.83,688.785,785.98,552.155,919.133,514.569l21.574-4.862a295.375,295.375,0,0,1,5.166-34.034,325.745,325.745,0,0,1,103.922-174.114,448.5,448.5,0,0,1,167.43-93.59A471.57,471.57,0,0,1,1356.7,187h0a473.6,473.6,0,0,1,50.745,3.038,176.893,176.893,0,0,0-27.348-37.983c-60.773-62.6-206.932-101.49-289.887-103.617A432.7,432.7,0,0,1,837.7,112.251,433.92,433.92,0,0,1,584.881,48.44C501.319,50.567,355.16,90.069,293.475,153.577,136.377,316.448,11.489,1111.663,4.5,1372.074H824.935c13.674-157.706,46.8-273.479,101.491-354.914A30.261,30.261,0,0,0,922.779,1015.338Z" transform="translate(132.239 995.906)"/>
      <path id="Path_3472" data-name="Path 3472" d="M1281.126,1334.166c-5.773-216.048-67.763-949.881-182.319-1116.1C1029.829,118.4,873.035,52.465,766.684,49.73A416.6,416.6,0,0,1,525.718,110.5,416.6,416.6,0,0,1,284.753,49.73c-91.159,2.127-167.429,50.441-230.633,126.1a443.045,443.045,0,0,1,119.115,60.773A338.813,338.813,0,0,1,309.67,437.157a280.234,280.234,0,0,1,5.166,33.729l22.182,5.165C469.761,513.9,548.462,650.313,514.779,784.171c-20.055,79.005-110,147.983-182.319,192.346l-4.862,1.824c54.7,82.346,87.514,198.423,101.491,355.825h852.037Z" transform="translate(1590.395 1033.815)"/>
      <path id="Path_3473" data-name="Path 3473" d="M365.155,971.283c107.568,46.491,134.916,49.53,219.087,34.64A386.225,386.225,0,0,0,777.2,914.764C907.858,897.14,1160.369,791.091,1238.157,720.9c-167.125-75.054-351.267-381.654-398.973-489.83A367.068,367.068,0,0,0,447.2,20.794C212.007,53,80.434,212.533,85.9,379.962c5.773,180.5-10.331,546.956-32.513,614.718A1505.328,1505.328,0,0,0,365.155,971.283Z" transform="translate(1568.943 47.539)"/>
      <path id="Path_3474" data-name="Path 3474" d="M731.436,79.693a416.886,416.886,0,0,1-252.512,79A416.6,416.6,0,0,1,226.716,79.39a200.247,200.247,0,0,0-73.839,43.755A212.927,212.927,0,0,0,136.165,142.9c-53.48,70.5-79.917,175.634-91.16,282.9-6.381,53.48-9.42,107.569-10.635,158.011H925c-4.254-161.658-26.133-361.3-121.545-461.571a196,196,0,0,0-72.017-42.541Z" transform="translate(1010.013 1905.417)"/>
      <path id="Path_3475" data-name="Path 3475" d="M174.915,511.8a151.9,151.9,0,0,1,39.5-48.922,130.621,130.621,0,0,1,33.425-20.967c1.519,9.116,3.343,18.232,5.47,27.955,6.077,30.386,13.978,60.772,24.917,97.541,1.519,4.861,3.342,9.723,5.165,14.585A264.424,264.424,0,0,0,299.8,617.238c3.343,5.469,6.686,11.243,10.332,16.409a257.986,257.986,0,0,0,25.829,30.387h0c4.558,4.557,8.813,9.116,13.673,13.37s10.332,9.116,15.8,13.066a291.112,291.112,0,0,0,35.856,23.4A337.293,337.293,0,0,0,564.47,754.889c146.157,0,245.522-75.661,281.377-172.6,1.52-4.557,3.343-9.115,4.861-13.978A1181.27,1181.27,0,0,0,881.1,442.82a154.06,154.06,0,0,1,72.927,69.89,281.375,281.375,0,0,1-3.342,202.372c53.175-32.817,129.446-91.159,141.3-137.042a157.4,157.4,0,0,0-10.938-108.48,170.161,170.161,0,0,0-48.922-60.772A160.145,160.145,0,0,0,977.725,378.4a290.178,290.178,0,0,0-68.37-8.812H889a364.712,364.712,0,0,0-3.95-100.58,224.273,224.273,0,0,0-47.1-94.5A298.127,298.127,0,0,0,786.29,126.8a241.161,241.161,0,0,0-27.651-18.231,367.373,367.373,0,0,0-94.5-39.5l-9.42-2.127h0A371.023,371.023,0,0,0,564.469,56h0A381.964,381.964,0,0,0,452.647,73.017a349.75,349.75,0,0,0-134,74.143,237.623,237.623,0,0,0-75.967,124.889,364.662,364.662,0,0,0-3.95,100.578H218.367A290.229,290.229,0,0,0,150,381.44a160.12,160.12,0,0,0-54.392,30.387A170.166,170.166,0,0,0,46.684,472.6,157.406,157.406,0,0,0,36.96,581.383c12.155,47.1,88.121,104.226,141.3,137.043A281.371,281.371,0,0,1,174.915,511.8Z" transform="translate(924.467 1218.067)"/>
      <text id="Created_by_Sewon_Park" data-name="Created by Sewon Park" transform="translate(0 2970.937)" font-size="62" font-family="Arial-BoldMT, Arial" font-weight="700"><tspan x="0" y="0">Created by Sewon Park</tspan></text>
      <text id="from_the_Noun_Project" data-name="from the Noun Project" transform="translate(0 3122.869)" font-size="62" font-family="Arial-BoldMT, Arial" font-weight="700"><tspan x="0" y="0">from the Noun Project</tspan></text>
    </g>
  </g>
</svg>
