<svg xmlns="http://www.w3.org/2000/svg" xmlns:xlink="http://www.w3.org/1999/xlink" width="3642" height="3655" viewBox="0 0 3642 3655">
  <defs>
    <clipPath id="clip-path">
      <rect id="Rectangle_1076" data-name="Rectangle 1076" width="3642" height="3655" transform="translate(0.376 -0.357)" fill="#fff" stroke="#707070" stroke-width="1" opacity="0.19"/>
    </clipPath>
  </defs>
  <g id="Mask_Group_294" data-name="Mask Group 294" transform="translate(-0.376 0.356)" clip-path="url(#clip-path)">
    <g id="noun_focus_3283475" transform="translate(0.379 160.037)">
      <rect id="Rectangle_1075" data-name="Rectangle 1075" width="468" height="341" transform="translate(113.998 1496.606)"/>
      <path id="Path_3476" data-name="Path 3476" d="M2969.6,1472.144H2743.423C2687.454,810.675,2161.172,286.786,1499.456,233.83V2H1273.279V233.83C559.279,279.991,3.774,872.568,3.774,1588.06s555.5,1308.068,1269.505,1354.228v226.176h226.176V2942.287c663.675-53.344,1190.624-580.293,1243.968-1243.968H2969.6ZM1386.367,2716.111c-624.568,0-1130.88-506.312-1130.88-1130.879S761.8,454.352,1386.367,454.352s1130.88,506.312,1130.88,1130.88-506.312,1130.88-1130.88,1130.88Z" transform="translate(349.037 -2)"/>
      <ellipse id="Ellipse_564" data-name="Ellipse 564" cx="632.5" cy="594" rx="632.5" ry="594" transform="translate(1036.998 927.606)"/>
      <text id="Created_by_Ilham_Fitrotul_Hayat" data-name="Created by Ilham Fitrotul Hayat" transform="translate(-0.003 4771.606)" font-size="238" font-family="Arial-BoldMT, Arial" font-weight="700"><tspan x="0" y="0">Created by Ilham Fitrotul Hayat</tspan></text>
      <text id="from_the_Noun_Project" data-name="from the Noun Project" transform="translate(-0.003 5252.606)" font-size="238" font-family="Arial-BoldMT, Arial" font-weight="700"><tspan x="0" y="0">from the Noun Project</tspan></text>
    </g>
  </g>
</svg>
