<?xml version="1.0" encoding="utf-8"?>
<!-- Generator: Adobe Illustrator 23.0.1, SVG Export Plug-In . SVG Version: 6.00 Build 0)  -->
<svg version="1.1" id="Layer_1" xmlns="http://www.w3.org/2000/svg" xmlns:xlink="http://www.w3.org/1999/xlink" x="0px" y="0px"
	 viewBox="0 0 90 112.5" style="enable-background:new 0 0 90 112.5;" xml:space="preserve">
<path d="M17.4,48.7c0.2,0.2,0.5,0.3,0.7,0.4l20.7,20.7l-9.3,9.3L8.3,57.9L17.4,48.7z M71.5,48l10.2,10.3L60.5,79.5L50.3,69.2
	L71.5,48z M16.3,34.3c0.9,0,1.7,0.3,2.4,0.9l5.3,5.3c1.3,1.3,1.3,3.4-0.2,4.9c-1.5,1.5-3.6,1.5-4.9,0.2l-5.3-5.3
	c-1.3-1.3-1.3-3.4,0.2-4.9C14.5,34.7,15.4,34.4,16.3,34.3z M23.8,26.9c0.9,0,1.7,0.3,2.4,0.9l5.3,5.3c0,0,0,0,0,0
	c1.3,1.3,1.3,3.4-0.2,4.9c-1.5,1.5-3.6,1.5-4.9,0.2L21.1,33c0,0,0,0-0.1-0.1c-1.3-1.3-1.3-3.4,0.2-4.9C22,27.3,22.9,26.9,23.8,26.9z
	 M31.2,19.4c0.9,0,1.7,0.3,2.4,0.9l5.3,5.3c1.3,1.3,1.3,3.4-0.2,4.9c-1.5,1.5-3.6,1.5-4.9,0.2l-5.2-5.3c0,0,0,0-0.1-0.1
	c-1.3-1.3-1.2-3.4,0.2-4.9C29.4,19.8,30.3,19.5,31.2,19.4z M38.6,12c0.9,0,1.7,0.3,2.4,0.9l5.3,5.3c1.3,1.3,1.3,3.4-0.2,4.9
	c-1.5,1.5-3.6,1.5-4.9,0.2L36,18.1c0,0,0,0-0.1-0.1c-1.3-1.3-1.2-3.4,0.2-4.9C36.9,12.4,37.8,12,38.6,12z M51.6,6.5
	c-1,0-2.1,0.2-3,0.6c-0.6,0.3-1.2,0.7-1.8,1.3c-0.7,0.6-0.7,1.7,0,2.3c0.6,0.6,1.7,0.6,2.3,0c0.3-0.3,0.5-0.5,0.9-0.6
	c1.2-0.6,2.9-0.4,4,0.8c1.5,1.5,1.5,3.6,0.2,4.9c-0.2,0.2-0.3,0.4-0.4,0.6c-0.4,0.2-0.7,0.5-1,0.8c-0.7,0.6-0.7,1.7,0,2.3
	c0.6,0.6,1.7,0.6,2.3,0c1.3-1.3,3.4-1.3,4.9,0.2c1.5,1.5,1.5,3.6,0.2,4.9c-0.2,0.2-0.3,0.4-0.4,0.6c-0.4,0.2-0.7,0.5-1,0.8
	c-0.7,0.6-0.7,1.7,0,2.3c0.6,0.6,1.7,0.6,2.3,0c1.3-1.3,3.4-1.3,4.9,0.2c1.5,1.5,1.5,3.6,0.2,4.9c-0.3,0.3-0.5,0.7-0.5,1.1
	c-0.7,0.3-1.4,0.8-2,1.3c-0.7,0.6-0.7,1.7,0,2.3c0.6,0.6,1.7,0.6,2.3,0c1.3-1.3,3.4-1.3,4.9,0.2c1.5,1.5,1.5,3.6,0.2,4.9L47.1,67.7
	l-5.4,0.4L23.2,49.6c1.1-0.3,2.1-0.9,2.9-1.8c1.6-1.6,2-3.7,1.7-5.7c2,0.3,4.1-0.1,5.7-1.7c1.6-1.6,2-3.7,1.7-5.7
	c2,0.2,4.1-0.1,5.7-1.7c1.6-1.6,2-3.7,1.7-5.7c2,0.2,4.1-0.1,5.7-1.7c2.6-2.6,2.8-6.9,0.2-9.5l-5.2-5.3c0,0,0,0-0.1-0.1
	c0,0-0.1-0.1-0.1-0.1c-1.3-1.2-2.9-1.8-4.6-1.7c-1.7,0.1-3.5,0.8-4.8,2.1c-1.5,1.5-2.2,3.5-2.1,5.4c-0.2,0-0.4,0-0.6,0
	c-1.7,0.1-3.5,0.8-4.8,2.1c-1.5,1.5-2.2,3.5-2.1,5.4c-0.2,0-0.4,0-0.6,0c-1.7,0.1-3.5,0.8-4.8,2.1c-1.5,1.5-2.2,3.5-2.1,5.4
	c-0.2,0-0.4,0-0.6,0c-1.7,0.1-3.5,0.8-4.8,2.1c-2.6,2.6-2.8,6.8-0.3,9.4c0,0,0.1,0.1,0.1,0.1l3.8,3.8L4.8,56.7
	c-0.6,0.6-0.6,1.7,0,2.3l23.6,23.6c0.6,0.6,1.7,0.6,2.3,0l11.2-11.2l5.6-0.4c0.1,0.1,0.2,0.2,0.3,0.3L59.4,83c0.6,0.6,1.7,0.6,2.3,0
	l23.6-23.6c0.6-0.6,0.6-1.7,0-2.3L73.8,45.6c2.4-2.6,2.2-6.8-0.4-9.3c-1-1-2.3-1.7-3.6-1.9c1.3-2.5,0.8-5.8-1.4-8
	c-1.2-1.2-2.7-1.9-4.2-2c0.7-2.3,0-5-1.8-6.8c-1.2-1.2-2.7-1.9-4.2-2c0.7-2.3,0-5-1.8-6.8c-1.1-1.1-2.4-1.7-3.7-2
	C52.3,6.5,52,6.5,51.6,6.5z"/>
</svg>
