<?xml version="1.0" encoding="utf-8"?>
<!-- Generator: Adobe Illustrator 23.0.1, SVG Export Plug-In . SVG Version: 6.00 Build 0)  -->
<svg version="1.1" id="Layer_1" xmlns="http://www.w3.org/2000/svg" xmlns:xlink="http://www.w3.org/1999/xlink" x="0px" y="0px"
	 viewBox="0 0 100 125" style="enable-background:new 0 0 100 125;" xml:space="preserve">
<title>people_friends</title>
<path d="M88.3,52.1c-0.6-0.8-1.3-1.6-2-2.3c-1,1.3-2.4,2.3-4,2.8c-0.8,0.3-1.6,0.5-2.4,0.5c-2.9,0-4.2-2.3-5.2-4
	c-0.6-1.1-1.3-2.2-2-3.2l-0.6-0.8c-1.3,0.5-2.6,0.8-3.9,0.9c-0.5,0-0.9,0.1-1.4,0.1c-2.9,0-5.8-0.9-8.2-2.7
	c-2.7,2.1-5.2,4.4-7.5,6.9c0.2,0.2,0.3,0.3,0.5,0.4s0.2,0.2,0.3,0.3c0.1,0.1,0.2,0.2,0.3,0.3c0.2,0.3,0.3,0.6,0.3,0.9
	c0,0.1,0,0.3-0.1,0.4c-0.6,2.5-0.9,13.3-1.1,21.5c0,0.5,0.1,1.1,0.1,1.6c0.2,3.5,0.4,6.3,0.4,7.4c0,0,0,0.1,0,0.1h30.5
	c-0.1-2.4-0.2-23.2-0.5-25.8c0.1,0.2,0.3,0.4,0.4,0.5c2.8,4.2,3.9,7.6,4.2,10.5c0.7,7.4-4.7,14.3-1.3,16.1c0.2,0.1,0.4,0.2,0.6,0.3
	l0.2,0.1l0.4,0.1h0.2l0.3,0.1h0.7l0.3-0.1L88,85l0.3-0.1h0.1c0.2-0.1,0.3-0.2,0.4-0.2l0.1-0.1l0.3-0.2l0.2-0.1l0.2-0.2l0.2-0.2
	l0.2-0.3l0.2-0.2l0.2-0.3l0.2-0.2l0.2-0.3c0-0.1,0.1-0.2,0.1-0.2l0.2-0.4c0.1-0.1,0.1-0.2,0.1-0.2s0.1-0.3,0.2-0.4s0.1-0.1,0.1-0.2
	s0.2-0.4,0.3-0.6l0.1-0.1c0.1-0.2,0.2-0.4,0.2-0.6l0.1-0.3l0.2-0.4l0.1-0.3c0-0.1,0.1-0.3,0.1-0.4l0.1-0.3c0-0.1,0.1-0.3,0.1-0.4
	l0.1-0.3c0-0.1,0.1-0.3,0.1-0.4s0-0.2,0.1-0.3l0.1-0.4c0-0.1,0.1-0.2,0.1-0.3c0-0.1,0.1-0.3,0.1-0.4s0-0.2,0.1-0.3s0.1-0.3,0.1-0.5
	s0-0.1,0-0.2l0.1-0.7v-0.2c0-0.2,0-0.3,0.1-0.5c0-0.1,0-0.2,0-0.2l0.1-0.4v-0.3c0-0.1,0-0.2,0-0.4v-0.3v-0.3v-0.2V71
	c0-0.1,0-0.2,0-0.2s0-0.2,0-0.3s0-0.1,0-0.2s0-0.2,0-0.3c0,0,0-0.1,0-0.2c0-0.1,0-0.3,0-0.4C93.8,63.3,91.9,57.2,88.3,52.1z"/>
<path d="M80.2,39.5c-0.2-0.2-0.3-0.4-0.5-0.6l0,0l-0.4-0.5c-1,2.2-2.5,4-4.5,5.4c0.1,0.1,0.2,0.3,0.3,0.4c2.7,3.6,3,6,4.8,6
	c0.5,0,0.9-0.1,1.3-0.3c1.1-0.3,2.1-1,2.8-1.9l0,0c0.7-1.1,0.4-2.5-0.3-3.8c0,0,0-0.1-0.1-0.1c-0.4-0.7-0.9-1.4-1.5-2.1l-0.3-0.3
	l-0.5-0.6l-0.3-0.4l-0.8-1L80.2,39.5z"/>
<path d="M48.7,83.2h0.2c0-1.2-0.2-4.7-0.5-9c-0.5-8.5-1.1-20-0.9-23.1c0-0.2,0-0.5,0.1-0.7c0.3-0.7,0.8-1.4,1.3-2l0,0
	c1.7-2,3.6-3.8,5.6-5.5c0.6-0.5,1.3-1.1,2-1.6c-0.9-1.1-1.6-2.4-2.1-3.8c-0.5-1.4-1-2.8-1.3-4.1c-1.6,1.6-3.4,3-5.3,4.3
	c-0.4,0.2-2.5,2.1-4.5,3.7c-2.5,3-6.2,4.7-10.1,4.7c-0.5,0-0.9,0-1.4-0.1c-1.3-0.1-2.5-0.4-3.7-0.9c-0.1,0.1-0.2,0.2-0.3,0.3
	l-0.4,0.5c-0.7,1-1.4,2.1-2,3.2c-0.4,0.7-0.8,1.4-1.4,2.1c-0.9,1.3-2.3,2-3.9,2c-0.8,0-1.6-0.2-2.4-0.5c-1.6-0.5-3-1.5-4-2.8
	c-0.7,0.7-1.4,1.5-2,2.3C8,57.1,6,63.2,6,69.4l0,0c0,0.1,0,0.2,0,0.3c0,0.1,0,0.2,0,0.2c0,0.1,0,0.2,0,0.3s0,0.1,0,0.2s0,0.2,0,0.3
	s0,0.1,0,0.2v0.3v0.2v0.3v0.3c0,0.1,0,0.2,0,0.3v0.3l0.1,0.4c0,0.1,0,0.2,0,0.3c0,0.1,0,0.3,0.1,0.4V74l0.1,0.7c0,0.1,0,0.2,0,0.2
	s0.1,0.3,0.1,0.5s0,0.2,0.1,0.3s0.1,0.3,0.1,0.4c0,0.1,0,0.2,0.1,0.3l0.1,0.4c0,0.1,0.1,0.2,0.1,0.3s0.1,0.3,0.1,0.4l0.1,0.3
	c0,0.1,0.1,0.3,0.1,0.4l0.1,0.3c0,0.1,0.1,0.3,0.1,0.4l0.1,0.3l0.2,0.4l0.1,0.3c0.1,0.2,0.2,0.4,0.2,0.6l0.1,0.1
	C8,80.8,8,81,8.1,81.2s0.1,0.2,0.1,0.2s0.1,0.3,0.2,0.4s0.1,0.2,0.1,0.2l0.2,0.3c0.1,0.1,0.1,0.2,0.1,0.2l0.2,0.3l0.1,0.2l0.2,0.3
	l0.1,0.2l0.2,0.3L9.9,84l0.3,0.2l0.1,0.1l0.3,0.2l0.1,0.1c0.1,0.1,0.3,0.2,0.4,0.2h0.1L12,85h0.2l0.3,0.1h0.7l0.3-0.1h0.2l0.4-0.1
	l0.2-0.1c0.2-0.1,0.4-0.2,0.6-0.3c1.1-0.6,1.3-1.6,1.1-3c-0.1-0.6-0.2-1.3-0.4-1.9c-0.8-3-2.4-7.1-2-11.2c0.3-2.9,1.4-6.3,4.2-10.5
	c0.1-0.2,0.3-0.4,0.4-0.5l0,0c-0.3,2.6-0.4,23.4-0.5,25.8L48.7,83.2L48.7,83.2z"/>
<path d="M16,44.7c-0.2,0.4-0.3,0.7-0.4,1.1c0,0.2-0.1,0.5-0.1,0.7c0,1.3,0.9,2.5,3.2,3.3c0.4,0.2,0.9,0.3,1.4,0.3
	c1.9,0,2.1-2.4,4.9-6L25,44l0,0l0.2-0.3c-2-1.3-3.6-3.1-4.6-5.3l-0.4,0.4l0,0c-0.4,0.5-0.9,1.1-1.4,1.7l-0.6,0.7l-0.6,0.8
	c-0.3,0.4-0.6,0.8-0.8,1.1C16.5,43.7,16.2,44.2,16,44.7z"/>
<path d="M57.2,36.4c0.4,1.1,1,2.1,1.7,3l0,0l0.2,0.3c0.1,0.1,0.1,0.2,0.2,0.3l0.3,0.3l0.3,0.2l0.3,0.3l0.3,0.2
	c0.1,0.1,0.2,0.2,0.4,0.3l0.3,0.2c0.1,0.1,0.3,0.2,0.4,0.2c0.1,0.1,0.2,0.1,0.3,0.2l0.4,0.2l0.3,0.1l0.5,0.2l0.3,0.1
	c0.2,0.1,0.3,0.1,0.5,0.2l0.3,0.1c0.2,0.1,0.4,0.1,0.7,0.1H65c0.3,0,0.6,0.1,0.9,0.1h0.3h0.7c0.3,0,0.7,0,1,0
	c4.7-0.2,8.7-3.7,9.4-8.4c1.3-7.3,0.6-10.8,0.2-12c-0.1-0.3-0.2-0.6-0.3-0.9l-0.1-0.3c-0.1-0.2-0.2-0.4-0.3-0.5l-0.2-0.3
	c-0.1-0.2-0.2-0.3-0.3-0.5l-0.2-0.3c-0.1-0.1-0.2-0.3-0.3-0.4l-0.3-0.3c-0.1-0.1-0.2-0.3-0.3-0.4c-0.1-0.1-0.2-0.2-0.3-0.3
	c-0.1-0.1-0.2-0.3-0.4-0.4l-0.3-0.3l-0.4-0.3l-0.3-0.3c-0.1-0.1-0.3-0.2-0.4-0.3l-0.3-0.2c-0.2-0.1-0.3-0.2-0.5-0.3L72,16.3
	l-0.5-0.2l-0.4-0.2l-0.5-0.2l-0.4-0.1l-0.6-0.2l-0.4-0.1l-0.6-0.1c-0.1,0-0.2,0-0.3-0.1L67.6,15h-0.2c-0.3,0-0.7,0-1,0s-0.7,0-1,0
	c-5.4,0.5-10.1,4.7-10.6,9.6C54.7,25.9,54.6,29.4,57.2,36.4z"/>
<path d="M22.6,21.7c-0.1,0.3-0.2,0.6-0.3,0.8l0,0c-0.3,1.2-1,4.7,0.2,12c0.5,2.8,2.1,5.3,4.6,6.8l0,0c1.5,0.9,3.2,1.4,4.9,1.6l0,0
	c0.3,0,0.7,0,1,0s0.5,0,0.7,0H34c0.3,0,0.6-0.1,0.9-0.1c0.1,0,0.1,0,0.2,0l0.7-0.1l0.3-0.1c0.2,0,0.3-0.1,0.5-0.2l0.3-0.1
	c0.2-0.1,0.3-0.1,0.5-0.2l0.3-0.1l0.4-0.2l0.3-0.2l0.4-0.2l0.3-0.2l0.4-0.3l0.3-0.2l0.3-0.3l0.3-0.2c0.1-0.1,0.2-0.2,0.3-0.3
	l0.2-0.2l0.3-0.3c0.7-0.9,1.3-1.9,1.7-3c0.3-0.9,0.6-1.8,0.9-2.6l0,0c0.3-1.1,0.6-2.1,0.8-3c0.5-2.1,0.7-4.2,0.6-6.3
	c-0.2-2.2-1.2-4.3-2.8-5.9c-2.1-2.2-4.8-3.5-7.8-3.8c-0.3,0-0.7-0.1-1-0.1s-0.7,0-1,0h-0.2c-0.3,0-0.5,0-0.7,0.1L31.1,15l-0.6,0.1
	l-0.4,0.1l-0.5,0.2l-0.4,0.1l-0.5,0.2l-0.4,0.2l-0.5,0.2l-0.4,0.2L27,16.6l-0.4,0.2c-0.1,0.1-0.3,0.2-0.4,0.3l-0.3,0.3l-0.4,0.3
	l-0.3,0.3l-0.4,0.4l-0.3,0.3L24.2,19l-0.3,0.3l-0.3,0.4L23.4,20l-0.3,0.5L23,20.8l-0.2,0.5C22.7,21.5,22.6,21.6,22.6,21.7z"/>
</svg>
