<?xml version="1.0" encoding="utf-8"?>
<!-- Generator: Adobe Illustrator 23.0.1, SVG Export Plug-In . SVG Version: 6.00 Build 0)  -->
<svg version="1.1" id="Layer_1" xmlns="http://www.w3.org/2000/svg" xmlns:xlink="http://www.w3.org/1999/xlink" x="0px" y="0px"
	 viewBox="0 0 90 112.5" style="enable-background:new 0 0 90 112.5;" xml:space="preserve">
<path d="M44,43c2.4,0,4.3-1.9,4.3-4.3c0-2.4-1.9-4.3-4.3-4.3c-2.4,0-4.3,1.9-4.3,4.3S41.6,43,44,43z M44,35.4c1.8,0,3.3,1.5,3.3,3.3
	S45.8,42,44,42s-3.3-1.5-3.3-3.3S42.2,35.4,44,35.4z M73.8,50.5c-0.1-0.2-0.4-0.3-0.7-0.2c-1.8,1.1-3.3-0.1-5.6-2
	c-1.6-1.4-3.4-3-5.7-3.4c-2.5-0.5-4.6,0.7-5.9,2.2C55.5,47,55,47,54.6,47l0,0c-3.5,0-7.1,1.9-9.7,5.2c-0.2,0.2-0.1,0.5,0.1,0.7
	c0.2,0.2,0.5,0.1,0.7-0.1c2.4-3,5.7-4.8,8.9-4.8c0.2,0,0.5,0,0.7,0l-0.1,0.1c-1.2,2.1-1.1,4.5,0.3,6.1c0.7,0.8,1.6,1.2,2.4,1.2
	c0.8,0,1.5-0.3,2-0.7c1.2-1,1.8-3,0.1-5.2c-0.8-1-1.8-1.7-3-2.1c1.1-1.1,2.8-1.9,4.6-1.5c2,0.4,3.7,1.8,5.3,3.2
	c2.2,1.9,4.2,3.6,6.8,2.2C73.9,51.1,74,50.8,73.8,50.5z M59.3,50.1c1.3,1.7,0.9,3.1,0,3.8c-0.8,0.6-2.1,0.8-3.1-0.3
	c-1.3-1.5-1-3.5-0.2-4.9c0.1-0.2,0.2-0.3,0.3-0.5C57.5,48.5,58.5,49.2,59.3,50.1z M33.3,26.3c0.9,0.5,2,0.6,3.1,0.1
	c0.5-0.2,1.1-0.6,1.5-1c0.3,1,0.4,2.3,0,3.6c-0.5-0.4-1.2-0.8-1.8-0.9c-1.2-0.2-2.3,0.1-3,0.9c-0.5,0.6-0.6,1.3-0.4,2
	c0.3,0.8,1,1.4,1.9,1.6c0.7,0.1,2,0.1,3.3-1.5c0.1-0.1,0.2-0.2,0.2-0.3c0.1,0.1,0.1,0.2,0.2,0.4c0.2,0.7,0.3,1.8-0.9,3.1
	c-2.9,3.2-3.2,6.1-3.2,6.7c0,0.3,0.2,0.5,0.5,0.5l0,0c0.3,0,0.5-0.2,0.5-0.5s0.2-3,3-6c1.1-1.2,1.5-2.7,1.1-4
	c-0.1-0.4-0.3-0.7-0.5-1c0.9-1.8,0.7-3.7,0.1-5.1v-0.1c0.8-0.9,1.4-2.1,1.8-3.5c0.1-0.3-0.1-0.5-0.3-0.6c-0.3-0.1-0.5,0.1-0.6,0.3
	c-0.3,1.1-0.8,2-1.3,2.8c-0.6-0.9-1.4-1.4-2.2-1.5C34,22.1,32.9,23,32.6,24C32,24.8,32.4,25.8,33.3,26.3z M37.1,30.4
	c-0.8,0.9-1.6,1.3-2.4,1.2c-0.5-0.1-1-0.5-1.1-0.9c-0.1-0.2-0.1-0.6,0.2-1c0.5-0.5,1.1-0.7,1.5-0.7c0.2,0,0.4,0,0.5,0.1
	c0.6,0.1,1.1,0.4,1.6,0.9C37.4,30.1,37.2,30.3,37.1,30.4z M33.3,24.2c0.2-0.5,0.8-1,2.1-1c0.2,0,0.4,0,0.6,0
	c0.5,0.1,1.1,0.5,1.6,1.3c-0.5,0.4-1,0.8-1.5,1c-0.6,0.2-1.4,0.4-2.2,0C33.4,25.2,33.1,24.7,33.3,24.2z M64.1,31.5
	c1.4,0,2.5-1.1,2.5-2.5s-1.1-2.5-2.5-2.5s-2.5,1.1-2.5,2.5S62.7,31.5,64.1,31.5z M64.1,27.5c0.8,0,1.5,0.7,1.5,1.5s-0.7,1.5-1.5,1.5
	c-0.8,0-1.5-0.7-1.5-1.5S63.3,27.5,64.1,27.5z M40.2,46.3c0,1,0.8,1.9,1.9,1.9s1.9-0.8,1.9-1.9s-0.8-1.9-1.9-1.9
	S40.2,45.2,40.2,46.3z M42.9,46.3c0,0.5-0.4,0.9-0.9,0.9s-0.9-0.4-0.9-0.9s0.4-0.9,0.9-0.9S42.9,45.8,42.9,46.3z M46.6,25.6l2.9,1.6
	l0.3,3.3c0,0.2,0.1,0.4,0.3,0.4c0.1,0,0.1,0,0.2,0c0.1,0,0.2,0,0.3-0.1l2.4-2.3l3.2,0.7c0.2,0,0.4,0,0.5-0.2
	c0.1-0.1,0.1-0.4,0.1-0.5l-1.4-3l1.6-2.8c0.1-0.2,0.1-0.4,0-0.5c0-0.2-0.2-0.3-0.4-0.2l-3.3,0.4L51.1,20c-0.1-0.1-0.3-0.2-0.5-0.1
	s-0.3,0.2-0.4,0.4l-0.6,3.2l-3,1.3c-0.2,0.1-0.3,0.2-0.3,0.4C46.4,25.4,46.5,25.5,46.6,25.6z M50.3,24.2c0.2-0.1,0.3-0.2,0.3-0.4
	l0.5-2.5l1.7,1.9c0.1,0.1,0.3,0.2,0.4,0.2l2.5-0.3l-1.3,2.2c-0.1,0.1-0.1,0.3,0,0.5l1.1,2.3L53,27.5c-0.2,0-0.3,0-0.4,0.1l-1.8,1.7
	l-0.3-2.5c0-0.2-0.1-0.3-0.3-0.4L48,25.2L50.3,24.2z M54.2,34.9c-0.2-0.1-0.4,0-0.5,0.1s-0.2,0.3-0.1,0.5l0.7,2.1L53,39.4
	c-0.1,0.2-0.1,0.4,0,0.5s0.3,0.3,0.4,0.3h2.2l1.3,1.8c0.1,0.1,0.2,0.2,0.4,0.2c0,0,0,0,0.1,0c0.2,0,0.3-0.2,0.4-0.3l0.7-2.1l2.1-0.6
	c0.2-0.1,0.3-0.2,0.3-0.4s0-0.4-0.2-0.5L58.8,37v-2.2c0-0.2-0.1-0.4-0.3-0.5s-0.4-0.1-0.5,0l-1.8,1.3L54.2,34.9z M56.7,36.6l1.2-0.9
	v1.5c0,0.2,0.1,0.3,0.2,0.4l1.2,0.9l-1.4,0.4c-0.2,0-0.3,0.2-0.3,0.3L57,40.6l-0.8-1.2c-0.1-0.1-0.2-0.2-0.4-0.2l0,0h-1.5l0.9-1.2
	c0.1-0.1,0.1-0.3,0.1-0.5l-0.5-1.4l1.4,0.5C56.4,36.7,56.5,36.7,56.7,36.6z M29.1,39.7c-0.1-0.1-0.3-0.2-0.4-0.1
	c-0.2,0-0.3,0.1-0.4,0.3l-12.1,28c-0.2,0.5-0.1,1,0.2,1.5c0.3,0.5,0.9,0.9,1.5,0.9c0.2,0,0.4,0,0.5-0.1l28-12.1
	c0.2-0.1,0.3-0.2,0.3-0.4s0-0.3-0.1-0.4L29.1,39.7z M27.6,43.9l8.2,4l6.9,6.9l-16.4-8L27.6,43.9z M28.9,41l4.8,4.8L28,43L28.9,41z
	 M36.6,61.2L23,54.6l1.3-2.9l16.2,7.9L36.6,61.2z M31.5,63.4l-10.2-4.9l1.3-2.9l12.8,6.2L31.5,63.4z M26.4,65.6l-6.7-3.3l1.3-2.9
	l9.3,4.5L26.4,65.6z M21.3,67.8L18,66.2l1.3-2.9l5.9,2.9L21.3,67.8z M18,69.2c-0.2,0.1-0.6-0.1-0.8-0.4c-0.1-0.1-0.2-0.3-0.1-0.5
	l0.5-1.2l2.5,1.2L18,69.2z M41.7,59l-17-8.3l1.3-2.9L45,57l0.4,0.4L41.7,59z"/>
</svg>
