<?xml version="1.0" standalone="no"?>
<!DOCTYPE svg PUBLIC "-//W3C//DTD SVG 20010904//EN"
 "http://www.w3.org/TR/2001/REC-SVG-20010904/DTD/svg10.dtd">
<svg version="1.0" xmlns="http://www.w3.org/2000/svg"
 width="512.000000pt" height="512.000000pt" viewBox="0 0 512.000000 512.000000"
 preserveAspectRatio="xMidYMid meet">

<g transform="translate(0.000000,512.000000) scale(0.100000,-0.100000)"
fill="#000000" stroke="none">
<path d="M2325 4743 c-280 -34 -529 -110 -774 -235 -612 -313 -1026 -880
-1158 -1588 -25 -137 -25 -583 0 -720 116 -619 447 -1133 944 -1463 274 -183
612 -310 931 -351 143 -18 426 -21 570 -5 238 25 487 94 687 188 627 296 1021
861 1120 1606 26 197 20 572 -11 678 -5 16 -63 17 -1040 17 l-1034 0 0 -375 0
-375 620 0 c586 0 620 -1 620 -18 0 -40 -44 -173 -85 -257 -111 -230 -329
-446 -547 -544 -100 -45 -241 -87 -353 -106 -131 -22 -368 -23 -490 0 -544 98
-978 524 -1097 1078 -32 147 -32 427 0 574 113 523 500 929 1008 1058 250 64
555 49 790 -40 130 -49 305 -156 373 -229 14 -14 28 -26 32 -26 10 0 594 561
594 570 0 9 -98 94 -178 154 -299 225 -638 360 -1017 406 -78 9 -436 12 -505
3z"/>
</g>
</svg>
