<svg id="Layer_1" data-name="Layer 1" xmlns="http://www.w3.org/2000/svg" viewBox="0 0 78.72 78.4"><title>home 2</title><path d="M53.41,22.3a4.83,4.83,0,0,0-6.82,0L12.06,56.76A4.83,4.83,0,0,0,15.46,65a.83.83,0,0,1,.83.83V94.47a4.83,4.83,0,0,0,4.82,4.83H37.45a4.85,4.85,0,0,0,4.83-4.83V75.87A.83.83,0,0,1,43.1,75H56.9a.83.83,0,0,1,.82.83v18.6a4.85,4.85,0,0,0,4.83,4.83H78.88a4.83,4.83,0,0,0,4.83-4.83V65.83a.83.83,0,0,1,.82-.83,4.82,4.82,0,0,0,3.41-8.24ZM85.3,60.49a.79.79,0,0,1-.77.51,4.82,4.82,0,0,0-4.82,4.83V94.47a.83.83,0,0,1-.83.83H62.55a.83.83,0,0,1-.83-.83V75.87A4.83,4.83,0,0,0,56.9,71H43.1a4.83,4.83,0,0,0-4.82,4.83v18.6a.83.83,0,0,1-.83.83H21.11a.83.83,0,0,1-.82-.83V65.83A4.83,4.83,0,0,0,15.46,61a.82.82,0,0,1-.82-.82.87.87,0,0,1,.24-.59L49.42,25.13a.82.82,0,0,1,1.16,0L85.12,59.59A.8.8,0,0,1,85.3,60.49Z" transform="translate(-10.64 -20.89)"/></svg>