<svg id="Layer_1" data-name="Layer 1" xmlns="http://www.w3.org/2000/svg" viewBox="0 0 17.93 17.56"><title>home</title><path d="M4,13.12h.9a.37.37,0,0,1,.38.37v6.25a1,1,0,0,0,1,1h2.9a1,1,0,0,0,1-1V16.52a.47.47,0,0,1,.48-.47h2.54a.47.47,0,0,1,.48.47v3.22a1,1,0,0,0,1,1h2.9a1,1,0,0,0,1-1V13.49a.37.37,0,0,1,.37-.37H20a1,1,0,0,0,.69-1.62L13.24,3.75a1.72,1.72,0,0,0-2.48,0L3.3,11.51a.93.93,0,0,0-.19,1A1,1,0,0,0,4,13.12ZM3.71,11.9l7.46-7.76a1.16,1.16,0,0,1,1.66,0l7.46,7.76a.38.38,0,0,1,.08.42.4.4,0,0,1-.36.23H19.1a.94.94,0,0,0-.93.94v6.25a.48.48,0,0,1-.48.47h-2.9a.47.47,0,0,1-.47-.47V16.52a1,1,0,0,0-1-1H10.73a1,1,0,0,0-1,1v3.22a.48.48,0,0,1-.48.47H6.31a.48.48,0,0,1-.48-.47V13.49a.94.94,0,0,0-.94-.94H4a.4.4,0,0,1-.36-.23A.38.38,0,0,1,3.71,11.9Z" transform="translate(-3.03 -3.22)"/></svg>