<?xml version="1.0" standalone="no"?>
<!DOCTYPE svg PUBLIC "-//W3C//DTD SVG 20010904//EN"
 "http://www.w3.org/TR/2001/REC-SVG-20010904/DTD/svg10.dtd">
<svg version="1.0" xmlns="http://www.w3.org/2000/svg"
 width="400.000000pt" height="400.000000pt" viewBox="0 0 400.000000 400.000000"
 preserveAspectRatio="xMidYMid meet">

<g transform="translate(0.000000,400.000000) scale(0.100000,-0.100000)"
fill="#000000" stroke="none">
<path d="M1265 3774 c-243 -12 -457 -74 -613 -177 -89 -60 -218 -194 -270
-283 -71 -119 -119 -266 -144 -439 -19 -130 -19 -1633 0 -1755 41 -262 118
-434 265 -587 162 -168 344 -255 622 -295 129 -19 1621 -19 1750 0 265 38 436
115 593 266 149 143 230 296 277 521 30 148 37 369 32 1088 -3 589 -7 717 -20
797 -43 250 -117 408 -260 557 -156 162 -321 244 -587 290 -69 12 -225 16
-830 18 -410 1 -776 0 -815 -1z m1435 -324 c193 -11 290 -33 407 -90 156 -77
264 -220 313 -415 30 -119 40 -343 40 -940 0 -604 -10 -832 -40 -950 -49 -195
-157 -338 -313 -415 -180 -88 -307 -100 -1102 -100 -601 0 -834 10 -950 40
-196 49 -338 157 -415 314 -88 179 -100 307 -100 1101 0 805 12 932 100 1111
104 213 308 324 630 343 195 12 1236 12 1430 1z"/>
<path d="M2903 3161 c-51 -13 -96 -44 -128 -90 -27 -39 -30 -50 -30 -121 0
-72 3 -82 31 -121 48 -66 103 -91 186 -87 55 3 75 9 110 34 134 94 119 294
-27 367 -39 19 -102 27 -142 18z"/>
<path d="M1884 2909 c-346 -40 -650 -295 -757 -635 -103 -327 -10 -696 236
-931 153 -146 330 -229 540 -252 433 -49 839 218 971 638 102 324 8 694 -237
928 -150 143 -332 230 -535 253 -97 11 -117 11 -218 -1z m306 -348 c190 -66
335 -225 385 -421 23 -89 17 -241 -14 -330 -58 -169 -202 -313 -371 -371 -89
-31 -241 -37 -330 -14 -194 50 -357 199 -421 385 -31 89 -37 241 -14 330 37
144 133 280 254 357 61 39 82 48 166 74 86 26 255 21 345 -10z"/>
</g>
</svg>
