<svg id="Layer_1" data-name="Layer 1" xmlns="http://www.w3.org/2000/svg" viewBox="0 0 155.95 74.38"><title>notifications</title><path d="M146.15,109.77a3,3,0,0,1-2.22-5A16.84,16.84,0,0,0,142.77,81a3,3,0,1,1,4-4.45,22.86,22.86,0,0,1,1.58,32.23A3,3,0,0,1,146.15,109.77Zm21.18,12a41.22,41.22,0,0,0-2.86-58.15,3,3,0,1,0-4,4.44,35.21,35.21,0,0,1,2.44,49.68,3,3,0,1,0,4.45,4ZM55.86,109a3,3,0,0,0,.21-4.24A16.83,16.83,0,0,1,57.23,81a3,3,0,0,0-4-4.45,22.84,22.84,0,0,0-1.58,32.23,3,3,0,0,0,2.23,1A3,3,0,0,0,55.86,109Zm-19,13a3,3,0,0,0,.21-4.24A35.21,35.21,0,0,1,39.56,68a3,3,0,1,0-4-4.44,41.22,41.22,0,0,0-2.86,58.15,3,3,0,0,0,2.23,1A3,3,0,0,0,36.91,122Zm65.23,14.32,27.37-28.38a18,18,0,0,0-.82-25.83,18.88,18.88,0,0,0-26.26.81L100,85.38l-2.42-2.52a18.89,18.89,0,0,0-26.26-.8,18,18,0,0,0-.83,25.83l27.33,28.38a3,3,0,0,0,2.16.92h0A3,3,0,0,0,102.14,136.27ZM93.25,87l4.6,4.76a3,3,0,0,0,2.16.92h0a3,3,0,0,0,2.16-.92L106.75,87a12.87,12.87,0,0,1,17.88-.54,12,12,0,0,1,.56,17.23L100,129.86,74.82,103.72a12,12,0,0,1,.55-17.23A12.87,12.87,0,0,1,93.25,87Z" transform="translate(-22.03 -62.81)"/></svg>