<svg id="Layer_1" data-name="Layer 1" xmlns="http://www.w3.org/2000/svg" viewBox="0 0 103.91 50.23"><defs><style>.cls-1{fill:red;stroke:red;stroke-miterlimit:10;}</style></defs><title>notifications filled</title><path class="cls-1" d="M108.42,43.71a2,2,0,0,1-1.46-3.3,11.11,11.11,0,0,0-.77-15.69,2,2,0,0,1,2.43-3.13,1.9,1.9,0,0,1,.21.19,15.08,15.08,0,0,1,1,21.27A2,2,0,0,1,108.42,43.71Z" transform="translate(-26.02 -12.07)"/><path class="cls-1" d="M122.4,51.63a27.2,27.2,0,0,0-1.88-38.38,2,2,0,0,0-2.91,2.69,1.55,1.55,0,0,0,.27.24A23.25,23.25,0,0,1,119.49,49a2,2,0,1,0,2.74,2.86,2,2,0,0,0,.19-.22Z" transform="translate(-26.02 -12.07)"/><path class="cls-1" d="M48.83,43.2A2,2,0,0,0,49,40.4h0a11.11,11.11,0,0,1,.77-15.68,2,2,0,0,0-2.64-2.94,15.07,15.07,0,0,0-1.05,21.27,2,2,0,0,0,2.78.15Z" transform="translate(-26.02 -12.07)"/><path class="cls-1" d="M36.29,51.78a2,2,0,0,0,.14-2.8h0a23.23,23.23,0,0,1,1.62-32.82l0,0A2,2,0,0,0,35.7,13a1.55,1.55,0,0,0-.27.24,27.2,27.2,0,0,0-1.88,38.38,2,2,0,0,0,2.77.19Z" transform="translate(-26.02 -12.07)"/><path class="cls-1" d="M79.34,61.23,97.41,42.5a11.88,11.88,0,0,0-.28-16.8l-.26-.25A12.46,12.46,0,0,0,79.54,26L78,27.61,76.37,26A12.46,12.46,0,0,0,59,25.42a11.87,11.87,0,0,0-.8,16.78l.25.27,18,18.73a2,2,0,0,0,1.42.61h0a2,2,0,0,0,1.43-.61Z" transform="translate(-26.02 -12.07)"/><path class="cls-1" d="M73.51,28.68l3,3.14a2,2,0,0,0,1.42.61h0a2,2,0,0,0,1.43-.61l3-3.14a8.49,8.49,0,0,1,11.8-.36,7.92,7.92,0,0,1,.54,11.19l-.17.18L78,57,61.35,39.71a7.92,7.92,0,0,1,.17-11.2,1.54,1.54,0,0,0,.19-.17A8.49,8.49,0,0,1,73.51,28.68Z" transform="translate(-26.02 -12.07)"/></svg>