<?xml version="1.0" encoding="utf-8"?>
<!-- Generator: Adobe Illustrator 23.0.1, SVG Export Plug-In . SVG Version: 6.00 Build 0)  -->
<svg version="1.1" id="Layer_1" xmlns="http://www.w3.org/2000/svg" xmlns:xlink="http://www.w3.org/1999/xlink" x="0px" y="0px"
	 viewBox="0 0 100 125" style="enable-background:new 0 0 100 125;" xml:space="preserve">
<style type="text/css">
	.st0{fill-rule:evenodd;clip-rule:evenodd;}
</style>
<g>
	<path class="st0" d="M94.2,55.1l-5.1-1.3c-1-0.3-2.1-0.8-2.1-1.9v-0.1c1.5,0.8,3,1,6.1,0.5c-5.1-4.7,5.5-20.2-4.2-20.6
		c-0.1,0-0.2,0-0.3,0c-0.2-0.1-0.4-0.2-0.5-0.3c-1.5-2.1-4.8-3.7-11-2.5c-9.8,1.9-2,17.1-6.2,23.5c2.9,0.4,4.5,0.2,6.3-0.8v0.4
		c0,1.1-1.2,1.7-2.1,1.9l-3.4,0.9l1.7,1.6l-4.7,0.8l1.1,0.3c4.3,1.1,7.2,4.8,7.2,9.1v3.7c1.7,0.1,3.4,0.2,5.2,0.2
		c5.3,0,10.5-0.6,15.5-1.9l0.5-0.1V60C98,57.6,96.5,55.7,94.2,55.1z M76.2,45.7c-0.3-0.9-0.5-1.7-0.7-2.5l-0.1-0.4l-0.4-0.1
		c-0.4-0.1-0.7-0.6-0.7-1.2c0-0.4,0.1-0.8,0.4-1l0.1-0.1l0-0.2c0.1-0.3,0.1-0.6,0.1-0.8c4.7-0.2,10.2-1.9,12.5-6.1
		c0,1.9,0.8,3.1,1.9,3.9c0,0.1,0,0.3,0,0.4c0,1,0,1.1-0.1,1.4c0,0.2-0.1,0.5-0.1,1l0,0.3l0.2,0.2c0.2,0.2,0.3,0.6,0.3,1
		c0,0.6-0.3,1.1-0.6,1.2l-0.3,0.1l-0.1,0.3c-0.2,0.9-0.5,1.7-0.8,2.5c-0.5,1.4-1.2,2.5-2.1,3.2c-1.2,0.8-2.6,1.7-4.1,1.7
		c0,0,0,0,0,0c-1.1,0-2.3-0.8-3.6-1.7l-0.1-0.1C77.3,48.1,76.6,47,76.2,45.7z M82.1,58.2c-2.5-0.9-4-2.3-5.1-3.8
		c1-0.6,1.5-1.5,1.5-2.5v-1.2c1.1,0.7,2.2,1.2,3.4,1.2c0,0,0,0,0,0c1.4,0,2.7-0.6,3.8-1.3v1.2c0,1.1,0.5,1.9,1.5,2.5
		C86.1,55.9,84.6,57.3,82.1,58.2z"/>
	<path class="st0" d="M69.2,59.3l-7.8-2.1c-1.6-0.4-3.5-1.3-3.5-3.3v-0.4c2.4,1.3,4.7,1.8,9.7,1c-7.9-7.2,8.4-31.3-6.5-31.8
		c-0.3,0-0.6-0.1-1-0.1c-2.1-3.4-7.4-6.2-17.3-4.3c-15.2,3-3.1,26.4-9.5,36.3c4.7,0.6,7.1,0.3,10.1-1.4V54c0,2-1.9,2.9-3.5,3.3
		l-7.8,2.1c-3.4,0.9-5.7,3.8-5.7,7.2v12.5l0.5,0.1c7.6,2,15.6,2.9,23.8,2.9s16.2-1,23.8-2.9l0.5-0.1V66.5
		C74.9,63.1,72.6,60.2,69.2,59.3z M44.5,49.8l-0.2-0.2c-1.4-1.2-2.5-2.9-3-5c-0.4-1.4-0.7-2.7-1-3.9l-0.1-0.4l-0.4-0.1
		C39,40,38.4,39.1,38.4,38c0-0.7,0.2-1.4,0.7-1.8l0.1-0.1l0-0.2c0.1-0.5,0.1-0.8,0.2-1.1c7.3-0.3,16-2.8,19.6-9.4
		c-0.1,3.2,1.3,5.1,3.3,6.3c0,0.1,0,0.2,0,0.4c0,1.6,0,1.7-0.1,2.2c-0.1,0.3-0.1,0.7-0.2,1.5l0,0.3l0.2,0.2c0.4,0.4,0.6,1.1,0.6,1.8
		c0,1-0.5,1.9-1.2,2.2l-0.3,0.1l-0.1,0.3c-0.3,1.4-0.7,2.7-1.2,3.9c-0.8,2.2-2,3.9-3.3,5.1c-1.9,1.3-4.1,2.7-6.5,2.7c0,0,0,0,0,0
		C48.4,52.4,46.5,51.2,44.5,49.8z M44.8,54v-2.5c1.8,1.2,3.6,2.2,5.5,2.2c0,0,0,0,0,0c2.3,0,4.4-1.1,6.2-2.3v2.4
		c0,1.5,0.8,2.7,2.2,3.6c-1.6,2.5-4.1,4.7-8.1,6.3c-4-1.5-6.4-3.7-8-6.2C44,56.7,44.8,55.5,44.8,54z"/>
	<path class="st0" d="M31.6,57.5l0.8-0.2l-3.6-0.4l1.8-2.8l-2.8-0.7c-0.9-0.2-2.4-0.8-2.4-2v-2.2c1-0.9,1.9-2.1,2.5-3.7
		c0.3-0.8,0.6-1.6,0.8-2.5c0.8-0.4,1.3-1.3,1.3-2.4c0-0.6-0.2-1.2-0.5-1.7c0-0.3,0.1-0.5,0.1-0.7c0.1-0.4,0.1-0.6,0.1-1.7
		c0,0,0,0,0,0c0.4-3.7-1.5-7.4-6-7.4L23.4,29c-3.4-2.5-7.9-1.5-10.6,1.3c-0.3,0.2-0.5,0.4-0.8,0.7c-1.5,1.6-1.6,3.4-1.7,5.3l0,0.4
		c0.1,0.6,0.1,0.9,0.2,1.1c0.1,0.3,0.1,0.3-0.1,1.1c-0.4,0.5-0.7,1.1-0.7,1.8c0,1.1,0.6,2,1.4,2.4c0.2,0.8,0.4,1.5,0.7,2.3
		c0.5,1.6,1.4,2.9,2.5,3.8v2.1c0,1.2-1.5,1.8-2.4,2l-5.7,1.4C3.7,55.4,2,57.5,2,59.9v8.6l0.5,0.1c5.5,1.3,11.4,2,17.4,2
		c1.5,0,3,0,4.5-0.1v-3.8C24.4,62.3,27.3,58.6,31.6,57.5z M19.9,55.8l-5.1-2.3c0.6-0.6,0.9-1.3,0.9-2.1v-1.2
		c1.5,0.9,2.9,1.3,4.1,1.3c1.5,0,2.9-0.6,4.2-1.4v1.2c0,0.7,0.2,1.2,0.6,1.7L19.9,55.8z M24.3,48.3c-2.8,2.2-5.2,2.9-8.8,0.1l0,0
		c-1.1-0.8-1.9-2-2.3-3.4c-0.3-0.9-0.5-1.8-0.7-2.6l-0.1-0.4L12,42c-0.5-0.1-0.8-0.7-0.8-1.3c0-0.4,0.1-0.8,0.4-1l0.2-0.1l0-0.2
		c0.1-0.6,0.1-0.9,0.2-1.1c2.1-2.7,8.3-1.5,10.5-5.8c3.9,1.8,5.1,4.6,5.7,6.5c0,0.1,0,0.1,0,0.2l0,0.3l0.2,0.2
		c0.1,0.1,0.1,0.1,0.2,0.2c0,0,0,0.1,0.1,0.2c0,0,0,0,0,0c0.1,0.2,0.2,0.4,0.2,0.7c0,0.6-0.3,1.1-0.8,1.3l-0.3,0.1l-0.1,0.3
		c-0.2,0.9-0.5,1.8-0.9,2.6C26,46.4,25.3,47.6,24.3,48.3z"/>
</g>
</svg>
