<?xml version="1.0" encoding="utf-8"?>
<!-- Generator: Adobe Illustrator 23.0.1, SVG Export Plug-In . SVG Version: 6.00 Build 0)  -->
<svg version="1.1" id="Layer_1" xmlns="http://www.w3.org/2000/svg" xmlns:xlink="http://www.w3.org/1999/xlink" x="0px" y="0px"
	 viewBox="0 0 64 80" style="enable-background:new 0 0 64 80;" xml:space="preserve">
<g>
	<path d="M58.8,25.8c-2.1-0.4-4.2,0.9-4.7,3L51,38c-0.2-0.1-0.4-0.2-0.6-0.2c-1-0.3-2.1-0.1-3,0.4l-9.9,5.7
		c-2.8,1.6-4.5,4.6-4.5,7.8V61c0,0.6,0.4,1,1,1s1-0.4,1-1v-9.4c0-2.5,1.3-4.8,3.5-6.1l9.9-5.7c1-0.6,2.2-0.2,2.7,0.7
		c0.6,1,0.2,2.2-0.7,2.7c0,0,0,0,0,0l-5.9,3.4c-0.5,0.3-0.6,0.9-0.4,1.4c0.3,0.5,0.9,0.6,1.4,0.4c0,0,0,0,0,0l5.9-3.4
		c1.9-1.1,2.6-3.5,1.5-5.5c0-0.1-0.1-0.1-0.1-0.2l3.3-10c0.3-1.1,1.3-1.8,2.4-1.6c0.9,0.2,1.6,1,1.6,2c0,0.2,0,0.4-0.1,0.5
		l-3.3,12.4c-0.3,1.2-0.9,2.3-1.8,3.1l-6.7,6.7c-1.3,1.3-2.1,3.1-2.1,5V61c0,0.6,0.4,1,1,1s1-0.4,1-1v-3.5c0-1.3,0.5-2.6,1.5-3.5
		l6.7-6.7c1.1-1.1,1.9-2.5,2.3-4l3.3-12.4c0.6-2.1-0.7-4.3-2.8-4.9C58.9,25.9,58.9,25.8,58.8,25.8L58.8,25.8z"/>
	<path d="M20,36h26c1.7,0,3-1.3,3-3V5c0-1.7-1.3-3-3-3H20c-1.7,0-3,1.3-3,3v28C17,34.7,18.3,36,20,36z M35,4v9.1l-1.4-1
		c-0.3-0.2-0.8-0.2-1.1,0l-1.4,1V4H35z M19,5c0-0.6,0.4-1,1-1h9v11c0,0.6,0.4,1,1,1c0.2,0,0.4-0.1,0.6-0.2l2.4-1.6l2.4,1.6
		c0.5,0.3,1.1,0.2,1.4-0.3c0.1-0.2,0.2-0.4,0.2-0.6V4h9c0.6,0,1,0.4,1,1v28c0,0.6-0.4,1-1,1H20c-0.6,0-1-0.4-1-1V5z"/>
	<path d="M25,30c-0.6,0-1,0.4-1,1s0.4,1,1,1h16c0.6,0,1-0.4,1-1s-0.4-1-1-1h-2v-7.6l1.3,1.3c0.4,0.4,1,0.4,1.4,0
		c0.4-0.4,0.4-1,0-1.4l-3-3c-0.4-0.4-1-0.4-1.4,0l-3,3c-0.4,0.4-0.4,1,0,1.4c0.4,0.4,1,0.4,1.4,0c0,0,0,0,0,0l1.3-1.3V30h-8v-7.6
		l1.3,1.3c0.4,0.4,1,0.4,1.4,0c0.4-0.4,0.4-1,0-1.4l-3-3c-0.4-0.4-1-0.4-1.4,0l-3,3c-0.4,0.4-0.4,1,0,1.4c0.4,0.4,1,0.4,1.4,0
		c0,0,0,0,0,0l1.3-1.3V30H25z"/>
	<path d="M26.5,43.8l-9.9-5.7c-1.1-0.6-2.5-0.7-3.7-0.2l-3-9.1c-0.5-2.1-2.6-3.4-4.7-3c-1.8,0.4-3.2,2-3.2,3.9c0,0.4,0,0.7,0.1,1
		l3.3,12.4c0.4,1.5,1.2,2.9,2.3,4l6.7,6.7c0.9,0.9,1.5,2.2,1.5,3.5V61c0,0.6,0.4,1,1,1s1-0.4,1-1v-3.5c0-1.9-0.7-3.6-2.1-4.9
		l-6.7-6.7c-0.9-0.9-1.5-2-1.8-3.1L4.1,30.2c-0.3-1.1,0.4-2.2,1.4-2.5c0,0,0.1,0,0.1,0c1.1-0.2,2.2,0.6,2.4,1.7l3.3,10
		c0,0.1-0.1,0.1-0.1,0.2c-1.1,1.9-0.4,4.4,1.5,5.5c0,0,0,0,0,0l5.9,3.4c0.5,0.3,1.1,0.1,1.4-0.4s0.1-1.1-0.4-1.4c0,0,0,0,0,0
		l-5.9-3.4c-1-0.5-1.3-1.8-0.8-2.7s1.8-1.3,2.7-0.8c0,0,0,0,0,0l9.9,5.7c2.2,1.3,3.5,3.6,3.5,6.1V61c0,0.6,0.4,1,1,1s1-0.4,1-1v-9.4
		C31,48.4,29.3,45.4,26.5,43.8z"/>
</g>
</svg>
