<svg xmlns="http://www.w3.org/2000/svg" xmlns:xlink="http://www.w3.org/1999/xlink" width="20" height="17" viewBox="0 0 20 17">
  <defs>
    <clipPath id="clip-path">
      <rect id="Rectangle_525" data-name="Rectangle 525" width="20" height="17" transform="translate(-868.692 445.964)" fill="none" stroke="#000" stroke-width="1" opacity="0.407"/>
    </clipPath>
  </defs>
  <g id="Mask_Group_106" data-name="Mask Group 106" transform="translate(868.692 -445.964)" opacity="0.998" clip-path="url(#clip-path)">
    <g id="noun_exclamation_2077922" transform="translate(-867 446.529)">
      <path id="Path_2456" data-name="Path 2456" d="M56.628,46.437a8.011,8.011,0,0,0-1.094-2.169A8.272,8.272,0,0,0,53.809,42.5a8.083,8.083,0,0,0-4.6-1.637,8.118,8.118,0,0,0-6.551,2.912,8.247,8.247,0,0,0-1.275,2.118,8.033,8.033,0,0,0-.365,4.946,8.095,8.095,0,0,0,4.515,5.421,8.3,8.3,0,0,0,2.461.676,8.207,8.207,0,0,0,2.555-.113,8.115,8.115,0,0,0,5.619-4.294,7.964,7.964,0,0,0,.753-2.342,8.4,8.4,0,0,0,.1-1.264h0A7.931,7.931,0,0,0,56.628,46.437Zm-6.915,6.712a.156.156,0,0,1-.05.122.154.154,0,0,1-.121.05H48.264a.173.173,0,0,1-.171-.171v-1.27a.17.17,0,0,1,.171-.168h1.279a.17.17,0,0,1,.171.168Zm.434-8.458c-.017.221-.034.442-.053.663q-.116,1.448-.233,2.9c-.048.611-.1,1.222-.146,1.834a.172.172,0,0,1-.026.084h0a.157.157,0,0,1-.126.086h-1.3a.175.175,0,0,1-.172-.171c-.017-.221-.036-.442-.053-.663q-.116-1.448-.233-2.9c-.048-.611-.1-1.222-.146-1.834a.173.173,0,0,1,.172-.171h2.142A.178.178,0,0,1,50.147,44.69Z" transform="translate(-40.053 -40.853)" fill="none" stroke="#000" stroke-width="1"/>
      <text id="Created_by_shashank_singh" data-name="Created by shashank singh" transform="translate(0.027 18.01)" fill="none" stroke="#000" stroke-width="1" font-size="1" font-family="HelveticaNeue-Bold, Helvetica Neue" font-weight="700"><tspan x="0" y="0">Created by shashank singh</tspan></text>
      <text id="from_the_Noun_Project" data-name="from the Noun Project" transform="translate(0.308 17.435)" fill="none" stroke="#000" stroke-width="1" font-size="1" font-family="HelveticaNeue-Bold, Helvetica Neue" font-weight="700"><tspan x="0" y="0">from the Noun Project</tspan></text>
    </g>
  </g>
</svg>
