<?xml version="1.0" encoding="utf-8"?>
<!-- Generator: Adobe Illustrator 23.0.1, SVG Export Plug-In . SVG Version: 6.00 Build 0)  -->
<svg version="1.1" id="Layer_1" xmlns="http://www.w3.org/2000/svg" xmlns:xlink="http://www.w3.org/1999/xlink" x="0px" y="0px"
	 viewBox="0 0 32 40" style="enable-background:new 0 0 32 40;" xml:space="preserve">
<title>Artboard 61</title>
<g>
	<path d="M16,35C7.7,35,1,28.3,1,20S7.7,5,16,5s15,6.7,15,15S24.3,35,16,35z M16,7C8.8,7,3,12.8,3,20s5.8,13,13,13s13-5.8,13-13
		S23.2,7,16,7z"/>
	<circle cx="16" cy="28" r="1"/>
	<path d="M16,12c-1.1,0-2,0.9-2,2l1,11c0,0.6,0.4,1,1,1c0.6,0,1-0.4,1-1l1-11C18,12.9,17.1,12,16,12z"/>
</g>
</svg>
