<svg xmlns="http://www.w3.org/2000/svg" width="93.287" height="74.09" viewBox="0 0 93.287 74.09">
  <path id="Icon_ionic-ios-share-alt" data-name="Icon ionic-ios-share-alt" d="M96.963,37.871,62.691,7.307a1.794,1.794,0,0,0-1.36-.556C60.262,6.8,58.9,7.515,58.9,8.6V23.932a1.007,1.007,0,0,1-.874.949C23.951,29.859,9.6,54.171,4.52,79.41c-.194,1,1.214,1.922,1.87,1.135C18.826,65.61,33.958,55.862,57.882,55.676a1.166,1.166,0,0,1,1.02,1.111v15.05c0,1.621,2.259,2.339,3.522,1.227l34.514-31.1a2.5,2.5,0,0,0,.85-1.945A3.018,3.018,0,0,0,96.963,37.871Z" transform="translate(-4.502 -6.749)" opacity="0.5"/>
</svg>
