<svg xmlns="http://www.w3.org/2000/svg" xmlns:xlink="http://www.w3.org/1999/xlink" width="1737" height="1360" viewBox="0 0 1737 1360">
  <defs>
    <clipPath id="clip-path">
      <rect id="Rectangle_1061" data-name="Rectangle 1061" width="1737" height="1360" transform="translate(68.694 358.377)" fill="#fff" opacity="0.71"/>
    </clipPath>
  </defs>
  <g id="Mask_Group_282" data-name="Mask Group 282" transform="translate(-68.694 -358.377)" opacity="0.7" clip-path="url(#clip-path)">
    <g id="noun_Rotate_Photo_97983" data-name="noun_Rotate Photo_97983" transform="translate(-7.639 399.062)">
      <path id="Path_3445" data-name="Path 3445" d="M1057.143,69.917c63.6,0,111.392,10.879,131.153,74.4l31.607,115.35h342.869c53.392,0,99.763,31.95,99.763,85.342v825.106c0,53.392-46.371,83.481-99.763,83.481H158.252c-53.374,0-86-30.089-86-83.481V345c0-53.392,32.628-85.342,86-85.342H486.2l29.773-116.317c14.132-48.16,53.717-73.433,117.32-73.433h423.847m30.984-63.241H633.3c-109.63,0-156.769,64.6-177,117.428l-19.851,72.322H158.252C65.536,196.417,9,259.667,9,345v825.105c0,86.878,59.446,146.731,149.252,146.731H1562.773c94.649,0,163.013-62.663,163.013-146.731V345c0-82.668-65.22-148.592-163.013-148.592h-293l-21.6-66.349C1216.37,6.667,1088.127,6.667,1088.127,6.667Z" transform="translate(73.135 -6.667)"/>
      <path id="Path_3446" data-name="Path 3446" d="M543.61,517.913c-162.263,0-294.4-126.5-302.769-289.143H335.9L192.093,68.983,48.3,228.77h96.682c8.439,216.857,183.416,385,398.629,385,102.167,0,195.072-37.887,265.731-101L741.528,444.58A301.865,301.865,0,0,1,543.61,517.913Z" transform="translate(388.931 494.087)" fill-rule="evenodd"/>
      <path id="Path_3447" data-name="Path 3447" d="M738.051,425.483C729.594,208.625,554.617,41.13,339.414,41.13a397.073,397.073,0,0,0-265.7,101.336L141.5,210.044c53.158-45.829,122.218-72.936,197.91-72.936,162.246,0,294.411,125.732,302.769,288.375H547.118l143.8,159.787L834.716,425.483Z" transform="translate(593.118 270.268)" fill-rule="evenodd"/>
      <text id="Created_by_David_Pareja" data-name="Created by David Pareja" transform="translate(0.333 1502.316)" font-size="35" font-family="Arial-BoldMT, Arial" font-weight="700"><tspan x="0" y="0">Created by David Pareja</tspan></text>
      <text id="from_the_Noun_Project" data-name="from the Noun Project" transform="translate(0.333 1582.316)" font-size="39" font-family="Arial-BoldMT, Arial" font-weight="700"><tspan x="0" y="0">from the Noun Project</tspan></text>
    </g>
  </g>
</svg>
