<?xml version="1.0" encoding="utf-8"?>
<!-- Generator: Adobe Illustrator 23.0.1, SVG Export Plug-In . SVG Version: 6.00 Build 0)  -->
<svg version="1.1" id="Layer_1" xmlns="http://www.w3.org/2000/svg" xmlns:xlink="http://www.w3.org/1999/xlink" x="0px" y="0px"
	 viewBox="0 0 64 80" style="enable-background:new 0 0 64 80;" xml:space="preserve">
<g>
	<path d="M32,26c14.1,0,17-4.4,17-8s-2.9-8-17-8s-17,4.4-17,8S17.9,26,32,26z M32,15c6.6,0,12,1.3,12,3s-5.4,3-12,3s-12-1.3-12-3
		S25.4,15,32,15z"/>
	<path d="M26,43v6c0,0.6,0.4,1,1,1s1-0.4,1-1v-6c0-0.6-0.4-1-1-1S26,42.4,26,43z"/>
	<path d="M30,31v11h2V31c0-0.6-0.4-1-1-1S30,30.4,30,31z"/>
	<path d="M20,45.2l-1.8-3.6c-0.5-1-1.5-1.7-2.7-1.7H3c0,1.1,0.9,2,2,2h6v2H5c0,0,0,0,0,0l0,0c0,1.1,0.9,2,2,2h6v2H7c0,0,0,0,0,0l0,0
		c0,1.1,0.9,2,2,2h6v2H9c0,0,0,0,0,0l0,0c0,1.1,0.9,2,2,2h9.2c-0.1-0.8-0.2-1.6-0.2-2.4V45.2z"/>
	<path d="M34,33v9h2v-9c0-0.6-0.4-1-1-1S34,32.4,34,33z"/>
	<rect x="24" y="64" width="16" height="6"/>
	<path d="M40,44H30c0,1.3,0.9,2.4,2.2,2.8l6.5,1.6l-0.8,1.2c-1.3,1.9-2.2,4-2.7,6.2L35,56.2L33,55.8l0.1-0.5c0.5-2,1.3-3.9,2.3-5.6
		l-3.8-0.9c-0.6-0.2-1.2-0.4-1.7-0.8V49c0,1.7-1.3,3-3,3c-0.8,0-1.5-0.3-2-0.8c-0.5,0.5-1.2,0.8-2,0.8c-0.3,0-0.7-0.1-1-0.2
		c0,3.7,1.3,7.3,3.5,10.2h13c2.3-3,3.5-6.7,3.5-10.4V46C42,44.9,41.1,44,40,44z M29.1,59.3c-0.5-1.6-1.8-2.8-3.4-3.4l0.6-1.9
		c2.2,0.7,3.9,2.5,4.6,4.6L29.1,59.3z"/>
	<path d="M23,50c0.6,0,1-0.4,1-1v-4c0-0.6-0.4-1-1-1s-1,0.4-1,1v4C22,49.6,22.4,50,23,50z"/>
	<path d="M48.5,40c-1.1,0-2.2,0.6-2.7,1.7l-1.9,3.7c0,0.2,0.1,0.4,0.1,0.6v5.6c0,0.8-0.1,1.6-0.2,2.4H53c1.1,0,2-0.9,2-2h-6v-2h6
		c1.1,0,2-0.9,2-2h-6v-2h6c1.1,0,2-0.9,2-2h-6v-2h6c1.1,0,2-0.9,2-2H48.5z"/>
</g>
</svg>
