<svg xmlns="http://www.w3.org/2000/svg" width="87.684" height="26.894" viewBox="0 0 87.684 26.894">
  <g id="Group_1728" data-name="Group 1728" transform="translate(-174.085 -352.069)">
    <path id="Path_1999" data-name="Path 1999" d="M0,0S4.227,5.813,4.227,11.785,0,23.891,0,23.891" transform="matrix(-1, 0.017, -0.017, -1, 179.752, 377.388)" fill="none" stroke="rgba(60,60,67,0.2)" stroke-linecap="round" stroke-width="2" opacity="0.5"/>
    <path id="Path_2000" data-name="Path 2000" d="M0,0A19.573,19.573,0,0,1,2.357,8.394,21.194,21.194,0,0,1,0,17.017" transform="matrix(-1, 0.017, -0.017, -1, 181.514, 374.515)" fill="none" stroke="rgba(60,60,67,0.2)" stroke-linecap="round" stroke-width="2" opacity="0.5"/>
    <path id="Path_1997" data-name="Path 1997" d="M0,0S4.227,5.813,4.227,11.785,0,23.891,0,23.891" transform="matrix(0.999, -0.035, 0.035, 0.999, 255.663, 353.647)" fill="none" stroke="rgba(60,60,67,0.2)" stroke-linecap="round" stroke-width="2" opacity="0.5"/>
    <path id="Path_1998" data-name="Path 1998" d="M0,0A19.573,19.573,0,0,1,2.357,8.394,21.194,21.194,0,0,1,0,17.017" transform="matrix(0.999, -0.035, 0.035, 0.999, 253.966, 357.582)" fill="none" stroke="rgba(60,60,67,0.2)" stroke-linecap="round" stroke-width="2" opacity="0.5"/>
  </g>
</svg>
